<svg width="58" height="61" viewBox="0 0 58 61" fill="none" xmlns="http://www.w3.org/2000/svg">
<path d="M51.0755 25.6922C51.1125 25.7063 51.1434 25.7329 51.1627 25.7675C51.182 25.8021 51.1885 25.8424 51.181 25.8813C51.1572 26.3099 51.2017 26.7377 51.1918 27.1667C51.185 27.3973 51.1969 27.628 51.2274 27.8567C51.2531 28.0382 51.2081 28.2202 51.2297 28.4045C51.2526 28.6029 51.2195 28.8044 51.2286 29.0058C51.2364 29.1758 51.1827 29.3444 51.1851 29.519C51.1855 29.7729 51.1732 30.0266 51.1481 30.2793C51.1517 30.4431 51.1253 30.6062 51.0704 30.7606C51.0514 30.8004 51.0669 30.8341 51.0638 30.8697C51.0552 31.0234 51.0372 31.1763 51.0099 31.3277C50.9433 31.6464 50.9073 31.9714 50.8359 32.2886C50.7839 32.5189 50.746 32.751 50.7011 32.9822C50.6578 33.2047 50.61 33.4263 50.5579 33.647C50.4377 34.1641 50.2875 34.6737 50.1078 35.1732C49.9624 35.5624 49.7951 35.9431 49.6067 36.3134C49.4663 36.6197 49.3056 36.9163 49.1257 37.2011C48.9748 37.4238 48.8552 37.6698 48.687 37.8748C48.5283 38.0682 48.3792 38.2715 48.2265 38.4674C47.8729 38.9213 47.5022 39.3596 47.1146 39.7824C46.8867 40.0316 46.652 40.2774 46.4288 40.5294C46.1669 40.825 45.8735 41.0884 45.6109 41.383C45.4569 41.5554 45.2749 41.7134 45.1075 41.8784C44.9456 42.0381 44.7623 42.1742 44.6104 42.344C44.453 42.5081 44.2874 42.664 44.1143 42.8112C43.9579 42.9534 43.8237 43.1418 43.6106 43.2201C43.5586 43.3995 43.3744 43.4484 43.2575 43.5623C43.1405 43.6763 43.0147 43.7834 42.907 43.902C42.796 44.0242 42.6796 44.1457 42.5664 44.2633C42.3367 44.5024 42.1311 44.7621 41.9032 45.0002C41.7642 45.1457 41.679 45.3224 41.5563 45.4757C41.3229 45.7707 41.1194 46.0883 40.9488 46.4237C40.8829 46.5597 40.7967 46.6849 40.6933 46.795C40.6127 46.8766 40.6399 46.9901 40.5775 47.0786C40.4765 47.2217 40.3998 47.3818 40.31 47.5328C40.2919 47.554 40.2797 47.5796 40.2748 47.6071C40.2698 47.6345 40.2722 47.6628 40.2818 47.689L40.1419 47.7433C40.11 47.7977 40.1793 47.7735 40.1842 47.81C40.1532 47.8755 40.1364 47.9542 40.0612 48.0013C39.9904 48.0455 40.0291 48.1349 39.9806 48.1984C39.8757 48.3368 39.8998 48.5537 39.7159 48.6482C39.7035 48.8199 39.5984 48.957 39.5412 49.1121C39.5158 49.1946 39.46 49.2642 39.3851 49.3067C39.3151 49.3431 39.4022 49.4693 39.2879 49.4836C39.2428 49.7719 39.0188 49.9597 38.8675 50.1798C38.6245 50.5328 38.4071 50.9064 38.1026 51.2205C37.9503 51.3776 37.8376 51.5852 37.6854 51.7483C37.3435 52.1148 37.026 52.5053 36.6399 52.8307C36.4804 52.9651 36.3508 53.1351 36.1899 53.268C35.8492 53.5497 35.5085 53.8323 35.1467 54.0873C35.086 54.1459 35.0101 54.1863 34.9277 54.2038C34.828 54.2128 34.8243 54.3318 34.7465 54.3827C34.6545 54.4434 34.5421 54.4535 34.454 54.5361C34.4055 54.5817 34.3063 54.6148 34.2499 54.6675C34.0664 54.8387 33.8073 54.8835 33.628 55.0589C33.5511 55.1125 33.4633 55.1481 33.3708 55.1634C33.0864 55.2594 32.8613 55.4805 32.5641 55.5376C32.4082 55.5699 32.2628 55.6406 32.141 55.7433C32.1013 55.7753 32.0615 55.8106 32.0202 55.8047C31.8765 55.7841 31.7665 55.8744 31.6441 55.9147C31.513 55.958 31.3985 56.0463 31.2568 56.0751C31.1107 56.0894 30.9683 56.1295 30.8363 56.1936C30.6264 56.3289 30.39 56.3598 30.1621 56.423C30.0482 56.4546 29.9371 56.5378 29.8017 56.4659C29.7304 56.4281 29.7294 56.6166 29.6187 56.5458C29.5531 56.5039 29.5 56.5355 29.4436 56.5872C29.3921 56.6344 29.2954 56.552 29.2502 56.6144C29.2049 56.6768 29.1232 56.7376 29.0934 56.7086C29.0185 56.6367 28.9708 56.7758 28.9139 56.7122C28.9101 56.7096 28.9058 56.708 28.9013 56.7074C28.8967 56.7069 28.8921 56.7073 28.8878 56.7088C28.6451 56.8059 28.3784 56.7584 28.1297 56.8438C27.9781 56.889 27.8194 56.9051 27.6618 56.8912C27.5152 56.8883 27.3686 56.8975 27.2235 56.9188C26.975 56.946 26.7293 56.8968 26.4834 56.9264C26.4168 56.9343 26.3592 56.7814 26.2845 56.9145C26.2108 56.8466 26.1378 56.918 26.066 56.9132C26.0056 56.8979 25.9478 56.8734 25.8948 56.8405C25.757 56.8743 25.6132 56.8751 25.475 56.8428C25.1876 56.8108 24.9025 56.7606 24.6214 56.6926C24.2371 56.5968 23.843 56.518 23.4989 56.3053C23.4281 56.2615 23.3731 56.3278 23.3073 56.2959C22.9232 56.1121 22.5217 55.9681 22.1696 55.7138C22.0221 55.6075 21.8305 55.5509 21.6785 55.4429C21.3732 55.2262 21.0413 55.0524 20.7636 54.788C20.5993 54.6314 20.404 54.4952 20.2318 54.3392C19.8654 54.0255 19.5381 53.6687 19.2567 53.2766C19.0532 52.9764 18.8431 52.6805 18.6634 52.3635C18.6016 52.2544 18.5802 52.1295 18.5137 52.0349C18.4489 51.9428 18.4037 51.8382 18.3811 51.7279C18.3621 51.6412 18.2634 51.612 18.2552 51.5122C18.2582 51.4686 18.25 51.425 18.2313 51.3855C18.2126 51.346 18.1841 51.312 18.1485 51.2867C18.1057 51.2601 18.1067 51.1624 18.0888 51.0967C18.0553 51.0048 18.0314 50.9097 18.0175 50.8129C18.0132 50.7345 17.8771 50.704 17.9532 50.6073C17.8444 50.5584 17.8625 50.4459 17.8318 50.3591C17.8028 50.2763 17.785 50.1894 17.7622 50.1044L17.6862 49.8209C17.6755 49.7335 17.6509 49.6483 17.6135 49.5686C17.5226 49.4369 17.522 49.2768 17.4507 49.1371C17.3825 48.9747 17.3346 48.8044 17.3082 48.6302C17.2749 48.4803 17.1518 48.3748 17.1305 48.2161C17.1202 48.0594 17.0774 47.9065 17.005 47.7671C16.9145 47.6242 16.9186 47.4448 16.8223 47.3277C16.7081 47.1873 16.735 47.0121 16.6515 46.8769C16.4694 46.5821 16.387 46.2396 16.2144 45.9465C15.9968 45.5768 15.8264 45.1824 15.5896 44.8213C15.4358 44.5866 15.2737 44.3558 15.1198 44.1208C14.9569 43.8921 14.775 43.6776 14.5759 43.4798C14.3341 43.2261 14.0723 42.9924 13.7929 42.7809C13.5142 42.5648 13.2059 42.3935 12.925 42.1827C12.7968 42.0866 12.654 42.0162 12.5278 41.9154C12.392 41.807 12.2137 41.7513 12.0773 41.6431C11.7358 41.3723 11.3263 41.1991 11.0138 40.8887C10.531 40.6267 10.1619 40.2159 9.72422 39.8944C9.50596 39.7343 9.33301 39.5134 9.13609 39.3231C8.80992 39.0068 8.5177 38.66 8.22206 38.3158C7.95347 37.9979 7.70605 37.6626 7.4814 37.3122C7.31768 37.0614 7.16604 36.8026 6.99773 36.5551C6.92956 36.4547 6.94914 36.3103 6.8293 36.2403C6.76856 35.9721 6.56054 35.7673 6.50846 35.4953C6.37996 35.3644 6.3594 35.188 6.32558 35.0228C6.3 34.8966 6.17839 34.8295 6.16744 34.6941C6.16643 34.566 6.13171 34.4404 6.06678 34.33C5.93842 34.1577 5.92045 33.9578 5.86603 33.7676C5.73965 33.3255 5.62087 32.8813 5.50969 32.4348C5.47339 32.2885 5.38393 32.1501 5.42384 31.987C5.4589 31.8439 5.32329 31.7196 5.3749 31.5699C5.39364 31.5153 5.29794 31.5092 5.29823 31.4419C5.29883 31.3104 5.19283 31.1983 5.24109 31.0501C5.2784 30.9354 5.14499 30.8235 5.21058 30.6905C5.2502 30.6102 5.03413 30.5687 5.15788 30.4565C5.09164 30.3048 5.10687 30.1417 5.09235 29.9829C5.08014 29.8514 4.98737 29.738 5.02941 29.5911C5.06527 29.4659 4.92355 29.3409 5.00507 29.2056C4.91342 29.0296 4.97587 28.8305 4.92163 28.6451C4.88755 28.5006 4.87296 28.3522 4.87824 28.2039C4.87514 27.9748 4.86527 27.7458 4.85012 27.5179C4.84573 27.4355 4.8459 27.353 4.85061 27.2707C4.85248 27.2249 4.89314 27.1924 4.87766 27.1367C4.77993 26.784 4.82275 26.4209 4.84038 26.0658C4.83789 25.8481 4.85471 25.6306 4.89066 25.4159C4.90402 25.3566 4.87637 25.263 4.906 25.2013C4.99298 25.02 4.97366 24.8246 4.98665 24.6369C4.99106 24.5368 5.00996 24.4379 5.04275 24.3433C5.04906 24.3253 5.07337 24.3064 5.06992 24.2928C5.00609 24.0387 5.12024 23.8061 5.15864 23.5655C5.19568 23.3327 5.27598 23.1069 5.30697 22.874C5.3695 22.4042 5.52923 21.9574 5.60997 21.4921C5.6407 21.3534 5.67981 21.2168 5.72707 21.0829C5.73296 20.9803 5.64587 20.9956 5.63925 20.9186C5.63536 20.8506 5.69347 20.8064 5.77501 20.7612C5.68098 20.5647 5.80143 20.3871 5.85205 20.2075C5.97184 19.7829 6.11024 19.3627 6.26445 18.9492C6.35871 18.6737 6.46959 18.4042 6.59647 18.1422C7.02586 17.3129 7.48662 16.5016 7.96919 15.7035C8.15304 15.3994 8.3367 15.0925 8.5365 14.7985C8.70632 14.5486 8.87586 14.2952 9.06093 14.0579C9.49255 13.5026 9.92513 12.9472 10.3985 12.4248C10.7605 12.0253 11.1446 11.6497 11.5285 11.2726C11.7751 11.0307 12.03 10.8015 12.2952 10.5813C12.719 10.2295 13.1504 9.88733 13.5894 9.55479C14.0032 9.24234 14.4758 9.02488 14.8716 8.69106C15.1794 8.60792 15.3964 8.34407 15.7086 8.26999C15.8156 8.14471 15.9809 8.11678 16.1169 8.05081C16.2574 7.98265 16.3852 7.87496 16.554 7.8557C16.6308 7.84716 16.676 7.74834 16.7702 7.73871C16.8111 7.73888 16.8515 7.73 16.8886 7.71269C16.9257 7.69538 16.9584 7.67008 16.9846 7.63858C17.0772 7.70925 17.0842 7.56252 17.1661 7.56878C17.2547 7.5753 17.3431 7.55203 17.417 7.50265C17.5774 7.38234 17.7923 7.39718 17.9409 7.29541C18.1021 7.18447 18.2945 7.19923 18.4433 7.10508C18.626 6.99015 18.8413 7.04992 19.0235 6.95875C19.0395 6.95079 19.0738 6.98028 19.1002 6.99235C19.1372 6.96428 19.1043 6.92441 19.1189 6.87593C19.1897 6.9032 19.264 6.92053 19.3396 6.92743C19.4313 6.91431 19.5214 6.89171 19.6084 6.85999L19.7061 6.6427C19.8264 6.63966 19.904 6.57707 20.0123 6.60089C20.0595 6.61118 20.1508 6.5428 20.2213 6.50964C20.314 6.4661 20.4294 6.55352 20.4858 6.48759C20.5563 6.42236 20.6469 6.38312 20.7427 6.37631C21.5623 6.15296 22.383 5.93308 23.2045 5.71666C23.2924 5.69312 23.3824 5.62497 23.4794 5.69692C23.5322 5.53381 23.6579 5.67897 23.7454 5.63569C23.833 5.60627 23.9261 5.59655 24.0179 5.60724C24.1785 5.6061 24.3377 5.52913 24.4993 5.49119C24.6046 5.44776 24.7201 5.43497 24.8325 5.45428C24.9329 5.48308 25.0436 5.4123 25.1625 5.41099C25.3114 5.41927 25.4607 5.40763 25.6064 5.37639C25.7032 5.33886 25.8085 5.32933 25.9104 5.34887C25.9939 5.36995 26.0884 5.26587 26.1836 5.34252C26.3732 5.27959 26.5683 5.31491 26.7612 5.30601C27.2244 5.2874 27.6884 5.29667 28.1506 5.33376C28.5383 5.36259 28.9265 5.38483 29.3139 5.41742C29.4392 5.42842 29.5662 5.44342 29.69 5.46296C30.1381 5.52123 30.5826 5.60427 31.0216 5.71171C31.4083 5.8178 31.8006 5.90636 32.1839 6.02987C32.3877 6.09549 32.6085 6.12046 32.8185 6.17776C33.3138 6.31249 33.8046 6.46035 34.2878 6.63342C34.718 6.76781 35.1342 6.94365 35.5306 7.15846C35.6333 7.21951 35.7532 7.25092 35.8602 7.30572C35.9746 7.38049 36.0941 7.44703 36.2179 7.50483C36.3829 7.5609 36.5231 7.66285 36.681 7.72418C36.8036 7.7718 36.8351 7.93552 37.0049 7.92591C37.1285 7.91897 37.1833 8.11009 37.33 8.10623C37.4234 8.26876 37.6292 8.25339 37.7553 8.38752C37.8773 8.51721 38.0685 8.58154 38.2292 8.67454C38.3955 8.75821 38.556 8.85294 38.7097 8.95809C38.9782 9.16618 39.2913 9.30248 39.5606 9.50223C39.8172 9.69279 40.1164 9.8279 40.3316 10.0701C40.3825 10.1274 40.4339 10.0843 40.4826 10.1163C40.5334 10.1496 40.5437 10.2103 40.5961 10.2369C40.8042 10.3518 41.0028 10.4831 41.19 10.6297C41.4623 10.8288 41.7297 11.036 42.0028 11.2323C42.4207 11.5424 42.8219 11.8743 43.205 12.2267C43.458 12.4523 43.7032 12.6868 43.9504 12.9184C44.2375 13.1876 44.5272 13.4548 44.8082 13.7297C45.0226 13.9397 45.2227 14.1638 45.4346 14.3762C45.6021 14.5446 45.7771 14.7065 45.9517 14.8679C46.1932 15.0912 46.4271 15.3235 46.6664 15.5475C47.0037 15.8667 47.3228 16.2045 47.6225 16.5593C47.7795 16.7346 47.9252 16.9198 48.0588 17.1136C48.1423 17.2422 48.2351 17.3645 48.3365 17.4795C48.5405 17.7077 48.6713 17.9759 48.8345 18.2264C48.8915 18.3146 48.9227 18.4113 48.9718 18.498C49.0176 18.5793 49.0542 18.6621 49.0954 18.7447C49.2185 18.9918 49.296 19.2619 49.4614 19.4879C49.4728 19.5027 49.4806 19.52 49.4842 19.5383C49.5303 19.8455 49.725 20.1004 49.7818 20.4058C49.8325 20.6779 50.015 20.9093 50.0489 21.19C50.1865 21.3174 50.1614 21.5117 50.2393 21.6599C50.4492 22.0597 50.509 22.5037 50.6335 22.9281C50.7577 23.3503 50.8623 23.7784 50.978 24.2032C51.0417 24.5062 51.0805 24.814 51.094 25.1233C51.0871 25.1957 51.0895 25.2688 51.1012 25.3406C51.1217 25.3978 51.13 25.4586 51.1256 25.5192C51.1212 25.5797 51.1041 25.6387 51.0755 25.6922ZM40.5913 45.9547C40.6126 45.9652 40.6357 45.9715 40.6593 45.9731C40.6829 45.9747 40.7066 45.9716 40.729 45.964C40.7515 45.9564 40.7722 45.9445 40.79 45.9288C40.8078 45.9132 40.8223 45.8942 40.8328 45.873L40.7809 45.6793C40.9495 45.625 40.8535 45.4208 40.9924 45.3099C41.1066 45.2188 41.1631 45.0556 41.2443 44.9258C41.2002 44.87 41.1237 44.9421 41.0819 44.8672C41.0096 44.9767 40.9771 45.1208 40.817 45.1318L40.8529 45.2658C40.763 45.3337 40.6934 45.425 40.6518 45.5298C40.5985 45.6215 40.4625 45.6647 40.4927 45.8046C40.3544 45.8278 40.4023 45.9833 40.3158 46.0552C40.2447 46.1345 40.1874 46.2252 40.1462 46.3235C40.0897 46.4214 40.0587 46.5364 40.0043 46.6279C39.9622 46.7252 39.9124 46.8191 39.8552 46.9084C39.7835 46.9937 39.6792 47.0623 39.668 47.1803C39.6602 47.2365 39.6403 47.2902 39.6098 47.3379C39.5793 47.3857 39.5389 47.4262 39.4913 47.4568C39.5835 47.6266 39.4401 47.675 39.3185 47.7342L39.3903 47.7758C39.4051 47.8448 39.3157 47.8114 39.3068 47.8616C39.2825 47.9986 39.2675 48.1498 39.1724 48.2504C39.0658 48.3633 39.0367 48.5083 38.9638 48.6338C38.6782 49.127 38.3832 49.614 38.0716 50.0907C38.0504 50.1233 38.0395 50.1732 38.0102 50.1881C37.8352 50.2767 37.784 50.4604 37.6773 50.6016C37.5772 50.763 37.4689 50.9192 37.3529 51.0696C37.1588 51.2612 36.9901 51.4769 36.8509 51.7116C36.8099 51.7078 36.7956 51.6664 36.7781 51.682C36.6966 51.8114 36.6498 51.9744 36.5461 52.0286C36.4065 52.1016 36.3922 52.2246 36.2819 52.3445C36.5429 52.2444 36.5429 52.2444 36.6486 52.0658C36.7558 52.1092 36.8122 51.9498 36.9355 51.9934C36.9323 51.8842 36.8781 51.7497 37.0534 51.7243C37.068 51.7228 37.0816 51.7166 37.0923 51.7067C37.103 51.6967 37.1101 51.6836 37.1126 51.6692C37.1449 51.4731 37.3152 51.3725 37.4225 51.2309C37.5072 51.1191 37.5942 50.9832 37.7518 50.983C37.7662 50.8453 37.8312 50.718 37.9341 50.6258L38.0274 50.6754L38.0676 50.4315C38.1602 50.3949 38.2425 50.3361 38.3073 50.2604L38.2772 50.1482C38.3522 50.1051 38.4086 50.0359 38.4357 49.9537C38.4703 49.8848 38.56 49.8631 38.5605 49.7555C38.5607 49.6791 38.6399 49.603 38.6838 49.5268C38.7437 49.496 38.8249 49.5072 38.8859 49.4379L38.7139 49.4185C38.864 49.3729 38.832 49.2531 38.8842 49.1738C38.9706 49.0439 39.0425 48.9043 39.1204 48.7688C39.0427 48.667 39.2292 48.686 39.1979 48.5907C39.1615 48.4798 39.3372 48.5582 39.3343 48.4639L39.3122 48.4475L39.5925 47.9601C39.6112 47.9131 39.6481 48.0208 39.6787 47.9557C39.7365 47.854 39.5201 47.8792 39.6005 47.7691C39.6351 47.7476 39.6559 47.8201 39.6953 47.7755C39.7111 47.7234 39.6445 47.669 39.6919 47.612C39.7307 47.641 39.7707 47.6706 39.7942 47.654C39.8493 47.6105 39.8337 47.5818 39.826 47.5547C39.7917 47.4348 39.787 47.3228 39.9048 47.2417C39.8755 47.1249 40.0025 47.1003 40.0367 47.0183C40.074 46.9289 40.1514 46.8539 40.1768 46.7621C40.2582 46.4674 40.4599 46.24 40.5913 45.9547ZM48.0157 33.0393C47.8334 33.2149 47.7915 33.4382 47.6872 33.6241C47.6018 33.7909 47.5262 33.9625 47.4608 34.1381C47.3834 34.3249 47.2712 34.492 47.1957 34.6758C47.0915 34.9496 46.9684 35.2157 46.8273 35.4724C46.7882 35.5397 46.7264 35.6046 46.7169 35.6763C46.6908 35.8692 46.5555 36.001 46.4746 36.1621C46.3936 36.3232 46.3585 36.5052 46.2467 36.6536C46.2173 36.6928 46.1703 36.7006 46.148 36.7692C46.0557 37.0496 45.8466 37.2777 45.7648 37.5668C45.6542 37.6136 45.6791 37.738 45.6228 37.8174C45.5666 37.8967 45.5221 37.9881 45.4681 38.0817C45.6201 38.1044 45.6149 37.9773 45.6683 37.9229C45.903 37.6839 46.1128 37.4215 46.2945 37.1399C46.6428 36.5866 46.9444 36.005 47.1962 35.4013C47.26 35.2522 47.3464 35.1147 47.4027 34.9653C47.5949 34.4558 47.7786 33.943 47.9538 33.4271C48.0018 33.3038 48.0229 33.1715 48.0157 33.0393ZM50.2081 31.1798L50.1484 31.2893C50.2219 31.3193 50.2465 31.3934 50.2984 31.4393C50.2919 31.5572 50.1042 31.4691 50.1143 31.6027C50.1489 31.6448 50.2114 31.5787 50.2406 31.639C50.2838 31.732 50.2272 31.8174 50.2205 31.9053C50.1783 31.9295 50.1185 31.9096 50.0918 31.9646C50.1527 32.0113 50.2085 32.0616 50.1777 32.1486C50.1166 32.321 50.1403 32.5206 50.0182 32.6737C49.9739 32.7292 50.0196 32.809 49.9614 32.8579C50.0362 32.9818 49.9626 33.0959 49.9325 33.2091C49.8341 33.5793 49.7406 33.9514 49.621 34.3151C49.4622 34.7977 49.3027 35.2824 49.1005 35.7472C48.9611 36.0681 48.8504 36.4055 48.6564 36.702C48.626 36.7486 48.6317 36.7885 48.6759 36.807C49.466 35.6393 49.8653 34.3239 50.1382 32.959C50.1832 32.9866 50.2224 33.0207 50.2735 32.98C50.2864 32.8726 50.3074 32.7664 50.3366 32.6622C50.3494 32.6388 50.3574 32.613 50.3602 32.5865C50.363 32.5599 50.3604 32.533 50.3527 32.5074C50.345 32.4818 50.3322 32.458 50.3152 32.4374C50.2982 32.4168 50.2773 32.3998 50.2536 32.3874L50.3274 32.0635C50.3721 32.0467 50.4336 32.0399 50.439 32.0189C50.4773 31.8684 50.5675 31.7188 50.4544 31.5618C50.5833 31.5364 50.5346 31.4199 50.5838 31.36C50.5118 31.2766 50.6692 31.167 50.5417 31.0783C50.4508 31.015 50.4684 30.9225 50.5631 30.8568L50.6214 30.8905C50.5886 30.8074 50.7062 30.7397 50.6406 30.6619C50.5812 30.6258 50.598 30.7572 50.525 30.6871C50.5361 30.5188 50.5601 30.3517 50.5968 30.1872C50.6092 30.1411 50.6111 30.0927 50.6024 30.0458C50.5937 29.9988 50.5745 29.9544 50.5463 29.9158C50.5111 30.0478 50.5294 30.1728 50.4172 30.2456C50.4671 30.2747 50.5208 30.2935 50.4835 30.3763C50.4496 30.4516 50.3874 30.4609 50.3246 30.4833C50.3202 30.4845 50.3163 30.4871 50.3133 30.4906C50.3104 30.4941 50.3086 30.4984 50.3082 30.503C50.3079 30.5076 50.3089 30.5121 50.3112 30.5161C50.3134 30.5201 50.3169 30.5232 50.321 30.5252L50.446 30.5351C50.3927 30.7687 50.3759 31.0026 50.2842 31.2224L50.2081 31.1798ZM14.4957 9.16921C14.4684 9.15915 14.4388 9.15712 14.4103 9.16335C14.3819 9.16958 14.3559 9.18382 14.3353 9.20438C14.14 9.36547 13.9245 9.50078 13.7184 9.6446C13.3469 9.90403 12.9956 10.1864 12.6489 10.475C12.0551 10.966 11.4876 11.4881 10.9487 12.0392C10.7191 12.2755 10.4925 12.5155 10.2775 12.7651C10.0472 13.0321 9.83758 13.3169 9.60848 13.585C9.38827 13.8422 9.20771 14.1275 9.00099 14.3941C8.82742 14.6179 8.70501 14.8782 8.50899 15.0868C8.47295 15.1331 8.4431 15.184 8.42019 15.238C8.39316 15.2891 8.35121 15.3363 8.34414 15.39C8.35467 15.395 8.36615 15.3977 8.3778 15.3978C8.38944 15.398 8.40098 15.3956 8.41164 15.391C8.42229 15.3863 8.43182 15.3793 8.43957 15.3706C8.44731 15.3619 8.4531 15.3516 8.45654 15.3405C8.54433 15.1825 8.64918 15.0346 8.7692 14.8995C9.03944 14.5753 9.26865 14.2222 9.52849 13.8916C9.66733 13.715 9.79209 13.5206 9.94235 13.3609C10.2817 13.0011 10.5951 12.6185 10.9364 12.26C11.3955 11.7782 11.8883 11.334 12.3602 10.8669C12.4721 10.7561 12.6157 10.6921 12.7235 10.5845C12.9573 10.3443 13.2135 10.1272 13.4886 9.93605C13.699 9.79443 13.8752 9.61183 14.0971 9.48093C14.2462 9.39962 14.3808 9.29431 14.4957 9.16921ZM14.0443 16.8647C13.9544 16.9907 13.8453 17.1018 13.7211 17.194C13.5877 17.3189 13.4751 17.4646 13.3453 17.5932C13.296 17.642 13.3444 17.7501 13.238 17.7557C13.1607 18.0687 12.9635 18.3084 12.7629 18.5524L12.6589 18.516L12.5988 18.6147L12.6685 18.66C12.6488 18.7366 12.5336 18.6762 12.5229 18.7676L12.6321 18.779C12.6692 18.954 12.6695 18.9547 12.5207 19.0317C12.4914 19.0468 12.4757 19.064 12.4853 19.0976C12.4902 19.1461 12.5372 19.1491 12.565 19.1721C12.5512 19.2451 12.4298 19.3011 12.5141 19.3845C12.6789 19.2781 12.7364 19.1002 12.8423 18.9595C12.9653 18.796 13.1003 18.642 13.2137 18.4692C13.3231 18.3023 13.4357 18.1358 13.5516 17.9751C13.695 17.8025 13.8283 17.6217 13.9508 17.4336C13.989 17.3655 14.0133 17.2761 14.0713 17.236C14.1368 17.1822 14.1896 17.1144 14.2258 17.0376C14.2728 16.9617 14.3156 16.8831 14.3577 16.8101C14.2199 16.7398 14.1757 16.9799 14.0445 16.8646L14.0443 16.8647ZM31.2833 34.7472C31.1691 34.7988 31.2305 34.9062 31.1779 34.9812C31.127 35.0599 31.0867 35.145 31.0579 35.2342C30.9343 35.5772 30.7807 35.9095 30.6354 36.2446C30.5306 36.486 30.4181 36.7277 30.3291 36.9715C30.2401 37.2153 30.1173 37.4467 30.0417 37.6948C29.9699 37.9307 29.8011 38.1321 29.8038 38.3938C29.9627 38.4527 30.0653 38.4258 30.1371 38.2678C30.2405 38.0395 30.3269 37.8031 30.4159 37.5684C30.4779 37.4048 30.5196 37.2325 30.5921 37.0741C30.7245 36.759 30.837 36.4359 30.9287 36.1066C31.0521 35.714 31.1741 35.3206 31.3021 34.9295C31.3151 34.9002 31.3203 34.8679 31.317 34.8359C31.3137 34.8039 31.302 34.7733 31.2833 34.7472ZM42.6557 14.7022C42.697 14.7632 42.7482 14.817 42.8071 14.8613C42.8399 14.8786 42.8798 14.8594 42.9125 14.9153C43.0414 15.1443 43.1825 15.3662 43.3352 15.58C43.4149 15.6875 43.466 15.8187 43.5874 15.8986C43.9132 16.1122 44.2338 16.3337 44.5557 16.5529C44.5859 16.5735 44.6288 16.5768 44.6414 16.6238C44.659 16.6894 44.7276 16.6964 44.7751 16.7242C44.8166 16.7484 44.8543 16.7983 44.9417 16.7798C44.6697 16.4447 44.3746 16.129 44.0586 15.8352C43.7688 15.5563 43.4744 15.2821 43.1752 15.0126C43.039 14.8904 42.9182 14.7552 42.7929 14.6235C42.7772 14.6063 42.7485 14.6011 42.735 14.5945L42.6557 14.7022ZM23.5785 16.5011C23.6237 16.7046 23.5307 16.8965 23.5353 17.0966C23.5409 17.342 23.5259 17.5874 23.5262 17.833C23.5268 18.0427 23.5159 18.2511 23.533 18.4619C23.5501 18.6783 23.5196 18.8968 23.5247 19.1159C23.5299 19.3428 23.5449 19.5716 23.5277 19.798C23.5132 19.9241 23.5073 20.0511 23.5101 20.178C23.5244 20.3229 23.522 20.4689 23.5028 20.6131C23.4775 20.7565 23.5761 20.9107 23.4568 21.0461C23.4281 21.0788 23.4611 21.1373 23.4863 21.1775C23.4989 21.1975 23.5391 21.2224 23.5367 21.2264C23.4474 21.3707 23.5359 21.5248 23.5031 21.6879C23.5544 21.6631 23.5881 21.6652 23.5918 21.5923C23.6092 21.2587 23.6476 20.926 23.6619 20.5923C23.6669 20.4751 23.7043 20.3521 23.6491 20.2354C23.7235 19.9755 23.6787 19.7066 23.6672 19.4486C23.6552 19.183 23.662 18.9151 23.6611 18.6522C23.659 18.0711 23.6274 17.4888 23.6673 16.9076C23.5983 16.78 23.7158 16.6226 23.5785 16.5011ZM23.4506 8.84065C23.4071 8.76137 23.3818 8.71422 23.3563 8.66712C23.505 8.61948 23.3605 8.45171 23.4941 8.373C23.6445 8.32222 23.8347 8.30078 23.9925 8.18229C24.0653 8.12756 24.0503 8.10139 23.9971 8.05582C23.8624 8.09501 23.7155 8.10341 23.6306 8.21763C23.5579 8.20982 23.5825 8.12511 23.518 8.12311C23.3427 8.17007 23.1384 8.17926 22.9919 8.27634C22.8302 8.38362 22.6552 8.40154 22.4867 8.45774C22.3113 8.51587 22.13 8.55588 21.9512 8.60379C21.9042 8.61638 21.8565 8.62693 21.8104 8.64261C21.7948 8.65174 21.7811 8.66371 21.7699 8.67789C21.7808 8.72298 21.7767 8.77346 21.8164 8.80816C21.9657 8.69852 21.9632 8.70755 22.1033 8.77775C22.1773 8.81477 22.1228 8.86591 22.1428 8.89801C22.2016 8.99291 22.303 8.9099 22.3717 8.94598C22.4329 8.96681 22.3621 9.06691 22.4618 9.06859C22.4774 8.96892 22.3676 8.85906 22.4936 8.77203C22.6626 8.80273 22.6626 8.80273 22.7207 8.62047C22.7064 8.54808 22.6121 8.64433 22.5911 8.55879C22.6637 8.54982 22.7265 8.46178 22.7827 8.59137C22.7995 8.63 22.9143 8.62587 22.9549 8.63437C23.0217 8.62171 23.0039 8.55238 23.0562 8.56868C23.1423 8.59565 23.1706 8.67609 23.224 8.72497C23.2045 8.78223 23.153 8.81743 23.1577 8.87022C23.2653 8.90323 23.2553 8.76796 23.3385 8.78043L23.4506 8.84065ZM44.1087 34.7079C44.179 34.586 44.2528 34.4776 44.306 34.3597C44.3582 34.2441 44.4472 34.1547 44.5049 34.0406C44.582 33.8876 44.6219 33.7196 44.7122 33.5728C44.8811 33.2766 45.0287 32.9687 45.154 32.6515C45.3488 32.1565 45.511 31.6493 45.6395 31.133C45.6732 31.0152 45.688 30.892 45.7116 30.7712C45.1398 32.0549 44.716 33.3941 44.0706 34.6405C44.0661 34.6491 44.0869 34.6715 44.1087 34.7079ZM19.5233 25.4391C19.3166 25.9584 19.1562 26.4951 19.0438 27.0428C18.8961 27.6952 18.7673 28.3523 18.6255 29.0063C18.6151 29.0376 18.6149 29.0714 18.625 29.1028C18.6352 29.1342 18.6551 29.1615 18.6819 29.1807C19.0224 27.9751 19.2728 26.7573 19.5501 25.5463C19.5574 25.5144 19.533 25.4751 19.5233 25.4391ZM10.0682 19.1162C10.3132 18.9452 10.3986 18.6626 10.5876 18.4573C10.7783 18.2416 10.9556 18.0144 11.1185 17.7769C11.2909 17.5361 11.4507 17.286 11.615 17.0415C11.5893 17.0325 11.5613 17.0322 11.5355 17.0407C11.5096 17.0491 11.4872 17.0658 11.4718 17.0882C11.3619 17.2861 11.0982 17.3483 11.0385 17.5878C10.8818 17.6322 10.8462 17.7835 10.7624 17.8942C10.7106 17.9692 10.6347 18.0241 10.5474 18.0498C10.5229 18.1661 10.4602 18.2708 10.3694 18.3472C10.2912 18.4127 10.2711 18.5382 10.1686 18.5919C10.2826 18.7267 10.275 18.744 10.065 18.8665C10.081 18.9002 10.1379 18.8922 10.1402 18.9689L10.0682 19.1162ZM12.742 19.5999C13.1176 19.273 13.8631 18.2776 13.8872 17.8531C13.7918 17.956 13.6665 18.0046 13.6671 18.1662C13.6672 18.2251 13.5932 18.2806 13.5732 18.3441C13.5445 18.4355 13.4321 18.3867 13.3956 18.4727C13.3575 18.5618 13.2567 18.6325 13.242 18.7212C13.2218 18.8429 13.1067 18.8702 13.0663 18.9644C13.0383 19.058 12.9873 19.143 12.918 19.2117C12.8335 19.2725 12.8588 19.4083 12.7518 19.4287C12.6386 19.4504 12.7118 19.609 12.597 19.6197C12.5311 19.7575 12.3914 19.842 12.3341 19.9873C12.3139 20.0391 12.3065 20.076 12.365 20.1104C12.4858 20.0582 12.5463 19.938 12.6209 19.8529C12.6899 19.8447 12.7368 19.9255 12.7933 19.8584C12.7964 19.8525 12.806 19.8426 12.8043 19.8356C12.7855 19.7601 12.7648 19.6851 12.742 19.5999ZM25.6907 42.0858C25.6142 42.1099 25.5662 42.0395 25.4832 42.096C25.4149 42.1549 25.3527 42.2205 25.2975 42.2919C25.2583 42.3317 25.2304 42.3811 25.2165 42.4352C25.2026 42.4893 25.2033 42.5462 25.2184 42.5999C25.2384 42.6911 25.1564 42.6792 25.1287 42.7316C25.1706 42.9156 25.2284 43.0949 25.4643 43.1954C25.5278 42.8161 25.7433 42.4969 25.6907 42.0858ZM8.49238 35.876C8.53229 36.0323 8.58892 36.1838 8.66127 36.3279C8.76847 36.552 8.90675 36.7555 9.02093 36.9729C9.19498 37.3041 9.43724 37.5857 9.65148 37.8867C9.71977 37.9933 9.79886 38.0925 9.88749 38.1828C9.98263 38.2664 10.0673 38.3612 10.1397 38.4652C10.1474 38.477 10.1752 38.515 10.2161 38.4652C10.1943 38.4096 10.165 38.3572 10.1289 38.3096C9.93866 38.0932 9.78845 37.8447 9.61755 37.6128C9.43707 37.3643 9.27037 37.1062 9.11818 36.8394C9.03592 36.6984 8.94658 36.5568 8.86299 36.4191C8.75937 36.2487 8.68571 36.0476 8.49238 35.876Z" fill="#FFF4E8"/>
</svg>
