<svg width="369" height="476" viewBox="0 0 369 476" fill="none" xmlns="http://www.w3.org/2000/svg">
<path fill-rule="evenodd" clip-rule="evenodd" d="M0.803101 184.089C0.803101 162.234 4.61424 141.269 11.6082 121.823C14.0704 124.405 16.8598 126.664 19.9106 128.541C24.01 131.14 28.2901 133.419 32.5678 135.696L32.5682 135.696C36.367 137.718 40.164 139.739 43.831 141.984C63.9093 154.271 85.8981 159.041 109.144 159.084C120.695 159.106 132.232 158.598 143.754 157.559C157.203 156.433 170.352 152.967 182.609 147.318C187.527 145.027 192.407 142.592 197.154 139.894C214.43 130.077 227.07 116.155 234.55 97.7722C236.558 92.5658 237.867 87.1166 238.445 81.5665C240.016 68.6126 237.293 56.2455 233.113 44.1211C232.065 41.0812 230.942 38.0679 229.818 35.0544C227.947 30.0364 226.075 25.018 224.552 19.8766C222.98 14.5655 221.768 9.2143 221.355 3.7731C305.418 20.7419 368.714 95.0233 368.714 184.088V475.79H0.803101V387.062C0.82215 387.08 0.841205 387.097 0.860265 387.115C1.19244 387.422 1.46886 387.787 1.74565 388.154C1.98882 388.476 2.23226 388.798 2.51402 389.081C4.35472 390.927 6.03192 392.904 7.68503 394.923C8.39191 395.785 9.117 396.634 9.84249 397.483C10.4613 398.207 11.0805 398.932 11.6888 399.665C12.5649 400.722 13.5059 401.723 14.4475 402.725C14.8221 403.124 15.1968 403.523 15.5676 403.925C15.7909 404.119 15.9983 404.331 16.1876 404.558C17.2852 406.245 18.7455 407.593 20.202 408.938C20.6815 409.381 21.1607 409.823 21.6264 410.277C22.3601 410.996 23.1989 411.606 24.0378 412.217C24.8572 412.814 25.6768 413.41 26.3987 414.108C27.3283 415.006 28.3945 415.716 29.4588 416.425C30.6169 417.196 31.7726 417.965 32.7474 418.975C33.9744 419.576 35.1196 420.314 36.2649 421.052C37.304 421.722 38.3433 422.392 39.4438 422.96C39.8465 423.167 40.234 423.405 40.6214 423.642C41.0354 423.895 41.4494 424.149 41.8818 424.366C42.476 424.664 43.0691 424.965 43.6622 425.265C46.88 426.896 50.0976 428.526 53.4926 429.781C54.538 430.167 55.5718 430.584 56.6056 431.002C57.2967 431.281 57.9878 431.56 58.6825 431.83C59.6504 432.207 60.632 432.553 61.6135 432.897C62.5104 433.149 63.3909 433.456 64.2502 433.816C65.1236 434.151 66.0211 434.419 66.935 434.618C68.4165 435.099 69.9348 435.463 71.4536 435.828C72.302 436.032 73.1505 436.236 73.993 436.46C75.597 436.919 77.2287 437.276 78.878 437.528C79.0693 437.553 79.2541 437.625 79.439 437.697C79.6162 437.766 79.7936 437.835 79.9768 437.863C80.3045 437.914 80.6417 437.939 80.9781 437.963C81.6199 438.009 82.2589 438.055 82.8239 438.286C83.4212 438.446 84.0315 438.551 84.6476 438.601C85.2237 438.832 85.8391 438.949 86.4596 438.946C87.0652 438.864 87.652 439 88.2395 439.136C88.8898 439.287 89.5409 439.438 90.2192 439.294C90.6747 439.674 91.1961 439.66 91.7165 439.645C91.9395 439.639 92.1623 439.633 92.3797 439.657C92.6993 439.694 93.0167 439.754 93.3338 439.813C93.736 439.889 94.1378 439.965 94.5435 439.993C96.0423 440.003 97.539 440.104 99.0254 440.298C100.552 440.512 102.1 440.525 103.63 440.334C104.496 440.268 105.335 440.395 106.172 440.521C106.871 440.627 107.569 440.732 108.28 440.725C108.692 440.721 109.105 440.715 109.517 440.71C111.473 440.685 113.431 440.66 115.384 440.74C116.565 440.788 117.731 440.66 118.897 440.531C120.04 440.405 121.183 440.279 122.343 440.319C122.698 440.331 123.054 440.351 123.411 440.37C124.96 440.455 126.524 440.541 128.067 440.041C128.769 439.937 129.482 439.924 130.188 440.001C130.34 439.995 130.496 440.004 130.652 440.013C131.116 440.04 131.582 440.067 131.977 439.695C132.357 440.19 132.707 440.003 133.07 439.808C133.317 439.677 133.569 439.541 133.842 439.614C134.544 439.716 135.257 439.729 135.963 439.653C136.056 439.653 136.16 439.665 136.264 439.677C136.49 439.704 136.717 439.731 136.832 439.631C137.287 439.234 137.785 439.268 138.279 439.301C138.526 439.318 138.772 439.334 139.013 439.297C139.252 439.261 139.492 439.22 139.732 439.179C140.271 439.088 140.812 438.996 141.353 438.951C142.575 438.847 143.8 438.767 145.025 438.687C145.528 438.654 146.031 438.621 146.534 438.587C146.57 438.584 146.612 438.586 146.654 438.589C146.744 438.594 146.833 438.598 146.871 438.557C147.183 438.208 147.573 438.239 147.948 438.268C148.209 438.289 148.463 438.309 148.679 438.2C149.315 437.95 149.997 437.839 150.679 437.874C151.045 437.849 151.404 437.765 151.764 437.68C152.349 437.542 152.935 437.403 153.552 437.524C153.842 437.18 154.215 437.178 154.59 437.177C154.728 437.176 154.867 437.176 155.002 437.158C155.535 437.011 156.08 436.906 156.63 436.843C157.094 436.861 157.336 436.626 157.586 436.382C157.654 436.316 157.722 436.25 157.795 436.187C157.846 436.144 157.925 436.133 158.008 436.121C158.047 436.115 158.087 436.11 158.126 436.1L158.725 436.491C158.933 436.327 159.168 436.202 159.42 436.122C159.655 436.09 159.896 436.098 160.136 436.106C160.371 436.113 160.606 436.121 160.837 436.092C161.095 436.059 161.348 435.99 161.602 435.92C161.83 435.857 162.059 435.795 162.292 435.759C162.747 435.773 163.197 435.662 163.594 435.438C163.784 435.301 164.044 435.271 164.324 435.238C164.557 435.211 164.804 435.182 165.035 435.089C165.571 434.874 166.149 434.769 166.729 434.663C167.249 434.569 167.77 434.474 168.262 434.299C168.655 434.16 169.069 434.09 169.483 434.019C170.217 433.894 170.95 433.769 171.561 433.262C172.526 433.335 173.388 433.001 174.25 432.666C174.842 432.437 175.433 432.207 176.06 432.108C176.609 432.06 177.14 431.883 177.608 431.591C178.106 431.183 178.723 430.948 179.366 430.92C179.846 430.814 180.311 430.648 180.749 430.425C180.924 430.366 181.105 430.321 181.286 430.276C181.535 430.214 181.783 430.152 182.017 430.054C182.194 429.98 182.364 429.868 182.532 429.757C182.795 429.583 183.055 429.413 183.328 429.396C183.762 429.37 183.991 429.144 184.225 428.914C184.304 428.837 184.383 428.759 184.47 428.688C184.817 429.024 185.099 428.849 185.374 428.678C185.483 428.61 185.591 428.544 185.701 428.509C185.95 428.431 186.188 428.32 186.426 428.21C186.636 428.112 186.846 428.015 187.063 427.939C187.91 427.711 188.745 427.437 189.563 427.117C190.044 426.888 190.499 426.601 190.953 426.314C191.437 426.008 191.919 425.703 192.434 425.469C192.759 425.32 193.083 425.17 193.407 425.019C194.273 424.617 195.141 424.213 196.028 423.854C196.249 423.765 196.437 423.592 196.624 423.42C196.816 423.243 197.007 423.068 197.233 422.981C198.516 422.487 199.749 421.87 200.913 421.14C201.896 420.53 202.911 419.968 203.926 419.411C205.313 418.693 206.573 417.754 207.658 416.631L208.016 416.905C208.054 416.816 208.082 416.721 208.108 416.631C208.159 416.459 208.204 416.306 208.302 416.254C211.142 414.744 213.544 412.646 215.937 410.556C216.27 410.265 216.602 409.974 216.936 409.685C220.633 406.359 224.037 402.721 227.112 398.813C228.898 396.401 230.52 393.872 231.966 391.242C233.463 388.629 234.527 385.842 235.593 383.053C235.777 382.57 235.962 382.086 236.149 381.603C236.227 381.403 236.172 381.151 236.106 380.847C236.072 380.688 236.034 380.514 236.01 380.325C236.287 380.011 236.498 379.645 236.632 379.248C236.78 378.649 236.882 378.039 236.935 377.425C236.972 376.904 237.072 376.389 237.233 375.893C237.275 375.788 237.143 375.568 237.044 375.403C236.98 375.298 236.93 375.215 236.949 375.2C237.387 374.861 237.335 374.42 237.286 374.006C237.274 373.908 237.263 373.812 237.258 373.719C237.274 371.924 237.189 370.131 237.004 368.346C236.711 366.595 236.23 364.88 235.571 363.232C234.117 359.496 231.856 356.128 228.949 353.369C227.495 351.855 225.94 350.442 224.295 349.139C222.619 347.841 220.865 346.646 219.044 345.561C218.304 345.155 217.594 344.695 216.883 344.235C216.056 343.699 215.229 343.164 214.357 342.714C211.678 341.329 208.96 340.031 206.203 338.82C204.353 338.008 202.459 337.28 200.559 336.575C199.429 336.165 198.32 335.697 197.237 335.173C196.419 334.772 195.565 334.442 194.711 334.113C194.44 334.008 194.17 333.904 193.901 333.798C192.765 333.4 191.667 332.906 190.616 332.32C190.062 331.977 189.497 331.654 188.931 331.329C187.614 330.575 186.294 329.819 185.102 328.817C183.818 327.639 182.658 326.333 181.64 324.919C181.005 324.116 180.636 323.187 180.268 322.262C179.925 321.396 179.582 320.534 179.024 319.779C179.096 319.179 178.884 318.647 178.673 318.118C178.511 317.712 178.35 317.309 178.319 316.881C178.271 316.219 178.114 315.576 177.957 314.935C177.752 314.096 177.547 313.259 177.588 312.381C177.189 311.982 177.211 311.507 177.234 311.032C177.244 310.818 177.254 310.605 177.226 310.398C177.185 310.095 177.125 309.793 177.066 309.492C176.995 309.133 176.925 308.775 176.884 308.413C176.834 307.967 176.8 307.519 176.766 307.07C176.701 306.202 176.635 305.335 176.454 304.492C176.423 304.085 176.344 303.683 176.219 303.295C176.088 302.72 176.07 302.125 176.166 301.543C176.166 301.378 176.184 301.203 176.202 301.028C176.243 300.635 176.283 300.241 176.121 299.971C175.878 299.455 175.77 298.885 175.809 298.316C175.789 296.881 175.649 295.45 175.393 294.039C175.301 293.672 175.275 293.301 175.25 292.937C175.221 292.509 175.192 292.09 175.056 291.7C174.606 290.42 174.378 289.072 174.381 287.715C174.411 287.262 174.327 286.808 174.136 286.395C173.945 286.01 173.892 285.56 173.84 285.107C173.8 284.767 173.76 284.426 173.662 284.108C173.511 283.62 173.425 283.12 173.339 282.618C173.211 281.868 173.082 281.117 172.736 280.406C172.419 279.502 172.193 278.569 172.062 277.62C171.987 277.553 171.933 277.466 171.907 277.368C171.724 276.819 171.547 276.267 171.371 275.715C171.229 275.274 171.088 274.833 170.943 274.393C170.212 272.386 169.339 270.433 168.333 268.549C167.633 267.103 166.807 265.721 165.863 264.42C165.505 263.935 165.159 263.442 164.813 262.948C163.751 261.433 162.689 259.919 161.279 258.679C160.739 258.312 160.279 257.838 159.928 257.287C159.578 256.483 158.944 255.957 158.314 255.433C157.784 254.993 157.256 254.554 156.901 253.955C156.06 253.44 155.324 252.793 154.587 252.145C153.831 251.48 153.074 250.814 152.201 250.289C151.408 249.812 150.66 249.26 149.912 248.708C149.439 248.359 148.966 248.01 148.481 247.68C147.82 247.178 147.101 246.757 146.339 246.426C146.021 246.309 145.749 246.102 145.478 245.895C145.036 245.559 144.596 245.224 143.968 245.286C143.76 244.587 143.183 244.373 142.622 244.165C142.431 244.094 142.241 244.023 142.069 243.935C141.38 243.579 140.665 243.271 139.95 242.963C139.002 242.555 138.056 242.147 137.171 241.63C136.479 241.224 135.74 240.948 135 240.671C134.255 240.392 133.508 240.113 132.807 239.701C131.928 239.185 130.915 238.897 129.903 238.609C129.475 238.488 129.048 238.366 128.631 238.227C128.373 238.142 128.109 238.063 127.845 237.984C127.309 237.824 126.773 237.664 126.293 237.446C125.883 237.26 125.457 237.127 125.033 236.995C124.621 236.866 124.21 236.738 123.813 236.562C123.064 236.14 122.197 235.975 121.345 236.093C120.892 235.621 120.304 235.496 119.716 235.371C119.436 235.311 119.157 235.252 118.893 235.155C118.651 235.067 118.382 235.048 118.114 235.029C117.805 235.007 117.499 234.985 117.24 234.858C116.497 234.493 115.704 234.352 114.914 234.211C114.564 234.149 114.214 234.086 113.869 234.005C112.023 233.562 110.155 233.22 108.272 232.981C107.828 232.926 107.383 232.858 106.937 232.79C105.557 232.581 104.163 232.369 102.743 232.513C102.004 232.694 101.224 232.593 100.555 232.229C100.352 232.095 99.9974 232.189 99.6436 232.284C99.4785 232.328 99.3135 232.372 99.1641 232.393L98.6176 232.132L98.1845 232.535L97.7376 232.12L97.2817 232.38C97.0895 232.352 96.9104 232.308 96.7465 232.268C96.4296 232.191 96.1692 232.127 95.979 232.213C95.1737 232.587 94.3447 232.559 93.5174 232.531C93.0787 232.516 92.6405 232.501 92.2064 232.546C91.7924 232.588 91.3811 232.659 90.949 232.733C90.7475 232.767 90.5415 232.803 90.3286 232.836L90.0199 232.55C89.9787 232.587 89.9372 232.633 89.8956 232.68C89.8056 232.782 89.7155 232.883 89.6291 232.88C87.4549 232.843 85.2851 233.086 83.173 233.603C82.9185 233.66 82.6642 233.654 82.4072 233.647C81.997 233.637 81.58 233.626 81.1447 233.873C80.8389 234.046 80.4657 234.069 80.0751 234.094C79.722 234.115 79.3548 234.138 79.0103 234.274C78.7675 234.369 78.4947 234.372 78.2164 234.375C77.8119 234.379 77.3958 234.383 77.0432 234.671C75.2272 234.736 73.5102 235.276 71.8067 235.812C71.3387 235.959 70.8718 236.106 70.4041 236.242C67.4768 237.149 64.6059 238.228 61.8064 239.474C60.6406 239.971 59.4635 240.44 58.286 240.908C56.77 241.512 55.2535 242.116 53.7603 242.781C52.2794 243.372 50.7551 243.849 49.2009 244.207C48.1419 244.491 47.0713 244.725 46.0005 244.96C45.4452 245.081 44.8899 245.203 44.336 245.332C44.1601 245.373 43.9866 245.426 43.8134 245.48C43.5641 245.557 43.3153 245.634 43.0601 245.672C42.5941 245.655 42.1275 245.68 41.6662 245.749C40.4393 246.17 39.1475 246.371 37.8506 246.342C36.8943 246.333 35.9377 246.357 34.9807 246.382C32.6699 246.442 30.3573 246.502 28.0427 246.081C25.9126 245.736 23.8304 245.143 21.8387 244.312C19.4134 243.256 17.2081 241.754 15.3376 239.884C14.8248 239.371 14.3095 238.862 13.7941 238.352C11.7674 236.347 9.74066 234.342 7.86545 232.175C5.6912 229.714 3.32982 227.427 0.803101 225.334V184.089ZM0.803101 380V233.146C1.4809 233.864 2.15172 234.588 2.82156 235.311C3.00589 235.51 3.19014 235.709 3.37444 235.908C3.49761 236.04 3.62076 236.173 3.74392 236.306C5.49252 238.189 7.24369 240.075 9.10626 241.834C12.5418 245.151 16.537 247.835 20.9073 249.76C23.2865 250.777 25.7586 251.561 28.2889 252.1C28.8564 252.223 29.428 252.333 29.9986 252.441C30.6926 252.574 31.385 252.706 32.0667 252.863C33.3744 253.065 34.6959 253.164 36.0191 253.161C36.1825 253.173 36.3425 253.227 36.5027 253.282C36.6598 253.335 36.8172 253.388 36.9785 253.402C37.1363 253.416 37.3022 253.441 37.4698 253.466C37.9727 253.54 38.4906 253.616 38.8472 253.418C39.3632 253.157 39.95 253.071 40.5192 253.173C41.6555 253.278 42.7727 253.14 43.8892 253.003C44.7284 252.9 45.5671 252.797 46.4132 252.797C46.9416 252.505 47.5364 252.451 48.1312 252.398C48.8751 252.33 49.6193 252.263 50.2346 251.731C51.1405 251.848 51.9826 251.602 52.8288 251.354C53.3947 251.188 53.9624 251.022 54.5523 250.964C55.7958 250.743 57.005 250.361 58.1491 249.826C59.019 249.494 59.8925 249.172 60.7661 248.849C63.0735 247.998 65.3814 247.146 67.6241 246.114C68.4075 245.754 69.2255 245.444 70.0443 245.134C70.4067 244.997 70.7693 244.86 71.129 244.718C71.6545 244.511 72.18 244.306 72.7055 244.101C73.3524 243.848 73.9993 243.595 74.6463 243.339C75.5601 242.977 76.5225 242.73 77.4848 242.482C77.9142 242.372 78.3436 242.262 78.7686 242.141C79.4751 241.939 80.189 241.766 80.903 241.594C81.4232 241.468 81.9435 241.342 82.4611 241.205C82.9893 241.065 83.5378 240.995 84.089 240.924C84.4899 240.873 84.8923 240.821 85.2892 240.742C86.2845 240.481 87.3074 240.34 88.3362 240.322C88.6806 240.335 89.0339 240.113 89.3384 239.921C89.4623 239.843 89.578 239.77 89.6818 239.72C89.8811 239.756 90.0807 239.815 90.2711 239.871C90.663 239.986 91.0158 240.09 91.2464 239.966C91.8807 239.622 92.5195 239.642 93.1566 239.662C93.4268 239.67 93.6966 239.678 93.9657 239.659C94.3148 239.633 94.6638 239.606 95.0129 239.58C96.4493 239.469 97.8861 239.359 99.325 239.313C100.392 239.278 101.461 239.284 102.53 239.29C103.297 239.294 104.064 239.298 104.83 239.287C105.209 239.222 105.579 239.113 105.933 238.961C105.943 238.97 105.96 238.987 105.98 239.01C106.054 239.09 106.184 239.233 106.328 239.247C106.614 239.278 106.905 239.278 107.195 239.279C107.493 239.279 107.792 239.28 108.086 239.313C108.319 239.338 108.548 239.405 108.777 239.472C109.03 239.546 109.283 239.62 109.54 239.638C109.839 239.659 110.158 239.631 110.473 239.603C111.028 239.554 111.573 239.506 111.988 239.723C112.379 239.93 112.794 239.912 113.174 239.895C113.551 239.879 113.893 239.864 114.142 240.069C114.477 240.347 114.865 240.336 115.241 240.326C115.67 240.315 116.082 240.304 116.38 240.721C118.037 240.759 119.603 241.219 121.17 241.68C122.332 242.021 123.495 242.363 124.697 242.534C125.876 242.798 127.027 243.177 128.132 243.665C129.026 243.929 129.904 244.245 130.761 244.611C131.54 245.013 132.366 245.318 133.22 245.519C133.607 245.6 133.957 245.777 134.307 245.953C134.798 246.202 135.287 246.449 135.87 246.425C136.817 246.935 137.774 247.425 138.731 247.915C140.711 248.929 142.692 249.943 144.589 251.134C146.283 252.198 147.897 253.368 149.502 254.532L149.811 254.756C151.466 256.046 153.02 257.461 154.458 258.989C156.691 261.316 158.63 263.908 160.232 266.707C160.697 267.475 161.053 268.274 161.409 269.071C161.609 269.52 161.809 269.968 162.028 270.41C162.617 271.586 163.11 272.807 163.502 274.062L163.534 274.168C163.993 275.66 164.453 277.154 164.771 278.681C164.818 278.905 164.888 279.124 164.958 279.343C165.111 279.819 165.265 280.298 165.183 280.84C165.133 281.171 165.249 281.487 165.366 281.807C165.506 282.187 165.648 282.574 165.515 282.998C165.935 284.013 166.08 285.091 166.225 286.168C166.369 287.245 166.514 288.322 166.934 289.337C166.944 289.367 166.94 289.403 166.937 289.44C166.934 289.464 166.932 289.49 166.934 289.514C166.967 289.992 167 290.47 167.032 290.949C167.112 292.139 167.192 293.328 167.296 294.516C167.345 295.069 167.438 295.617 167.53 296.166C167.569 296.396 167.608 296.626 167.644 296.856C167.684 297.119 167.665 297.39 167.646 297.662C167.607 298.196 167.569 298.731 167.987 299.206C168.062 299.292 168.032 299.486 168.007 299.649C168.003 299.676 167.999 299.702 167.995 299.727C167.824 300.968 168.008 302.187 168.192 303.403C168.276 303.962 168.361 304.521 168.41 305.081C168.575 306.933 168.823 308.802 169.109 310.646C169.341 312.238 169.701 313.809 170.187 315.343C170.624 316.813 171.146 318.256 171.75 319.665C171.988 320.18 172.217 320.702 172.447 321.224C172.747 321.906 173.047 322.588 173.365 323.255C173.963 324.455 174.706 325.576 175.58 326.593C176.853 328.187 178.24 329.687 179.731 331.08C181.51 332.715 183.491 334.118 185.625 335.253C187.627 336.395 189.687 337.433 191.796 338.363C192.718 338.724 193.622 339.128 194.525 339.533C195.968 340.179 197.412 340.826 198.936 341.294C199.933 341.6 200.886 342.047 201.839 342.494C202.625 342.863 203.411 343.232 204.224 343.523C207.288 344.715 210.273 346.102 213.161 347.673C217.133 349.828 220.808 352.492 224.092 355.597C225.559 357.085 226.762 358.812 227.649 360.705C228.183 361.92 228.575 363.192 228.818 364.497C228.917 365.021 228.935 365.55 228.952 366.072C228.972 366.699 228.993 367.316 229.154 367.901C229.415 368.845 229.293 369.754 229.172 370.661C229.085 371.304 228.999 371.945 229.049 372.598C229.103 373.31 228.857 374.053 228.614 374.786C228.535 375.023 228.456 375.26 228.388 375.494C227.922 377.244 227.347 378.962 226.664 380.639C225.253 383.927 223.576 387.094 221.649 390.108C221.4 390.462 221.153 390.818 220.907 391.174C219.531 393.159 218.156 395.143 216.368 396.8C216.323 396.838 216.281 396.88 216.243 396.925C216.052 397.166 215.886 397.423 215.72 397.679C215.365 398.228 215.009 398.777 214.405 399.18C213.574 399.846 212.808 400.59 212.119 401.403C211.406 402.196 210.645 402.944 209.84 403.643C209.401 403.984 208.977 404.343 208.552 404.702C207.944 405.215 207.336 405.729 206.684 406.194C206.047 406.65 205.443 407.154 204.837 407.66C204.351 408.066 203.864 408.473 203.357 408.856C201.691 410.114 199.966 411.286 198.215 412.387L198.058 412.485C196.532 413.445 194.997 414.41 193.377 415.249C192.513 415.696 191.655 416.153 190.797 416.61C188.941 417.599 187.086 418.588 185.173 419.468C183.683 420.154 182.18 420.806 180.677 421.459C180.022 421.743 179.368 422.027 178.715 422.314C178.197 422.54 177.665 422.711 177.135 422.88C176.571 423.06 176.01 423.24 175.47 423.486C175.107 423.652 174.72 423.758 174.333 423.863C173.657 424.049 172.981 424.233 172.436 424.737C171.624 424.731 170.892 425.016 170.165 425.299C169.709 425.477 169.254 425.654 168.783 425.758C168.209 425.885 167.657 426.081 167.111 426.275C166.513 426.488 165.922 426.699 165.316 426.813C164.213 427.021 163.13 427.302 162.047 427.583C161.033 427.845 160.021 428.108 158.992 428.311C158.907 428.328 158.822 428.344 158.737 428.361C158.104 428.487 157.478 428.611 156.833 428.692C156.164 428.74 155.502 428.859 154.859 429.047C154.182 429.296 153.482 429.409 152.781 429.523C152.063 429.64 151.343 429.756 150.647 430.018C150.001 430.262 149.279 430.301 148.555 430.34C148.18 430.36 147.805 430.38 147.439 430.429C147.065 430.479 146.694 430.557 146.323 430.636C146.093 430.684 145.862 430.733 145.631 430.775C145.455 430.807 145.27 430.793 145.084 430.78C144.692 430.75 144.299 430.721 143.992 431.125C143.965 431.161 143.884 431.152 143.798 431.142C143.745 431.136 143.692 431.13 143.648 431.134C143.281 431.165 142.913 431.195 142.546 431.225C141.54 431.308 140.534 431.39 139.532 431.495C139.246 431.525 138.97 431.602 138.692 431.68C138.267 431.799 137.839 431.919 137.367 431.87C137.294 431.862 137.22 431.853 137.145 431.844C136.547 431.771 135.904 431.693 135.377 432.19C135.337 432.229 135.253 432.219 135.167 432.208C135.12 432.203 135.072 432.197 135.03 432.199C134.344 432.235 133.656 432.256 132.967 432.277C131.388 432.326 129.81 432.375 128.256 432.599C127.175 432.756 126.09 432.773 125.01 432.791C123.943 432.808 122.882 432.825 121.835 432.977C120.17 433.174 118.495 433.268 116.819 433.257C115.125 433.291 113.428 433.276 111.733 433.261L111.669 433.26C111.065 433.255 110.471 433.364 109.877 433.472C109.051 433.623 108.225 433.773 107.376 433.617C105.26 433.229 103.128 433.262 101 433.294C99.442 433.318 97.8857 433.342 96.3379 433.201C95.7183 433.144 95.0951 433.12 94.4732 433.096C93.4777 433.057 92.4858 433.018 91.518 432.848C90.9319 432.745 90.3446 432.715 89.7623 432.685C89.1454 432.654 88.534 432.623 87.9356 432.505C87.4976 432.418 87.0532 432.386 86.6136 432.353C86.0858 432.315 85.5647 432.276 85.0697 432.145C84.5744 432.015 84.0746 431.992 83.5831 431.969C83.1081 431.947 82.6408 431.926 82.1927 431.807C81.236 431.556 80.2573 431.419 79.2793 431.283C77.9357 431.095 76.5936 430.908 75.3119 430.422C74.2739 430.586 73.3048 430.309 72.3337 430.031C71.7753 429.871 71.2162 429.711 70.6431 429.635C69.2302 429.398 67.8405 429.04 66.4895 428.563C64.8801 428.049 63.275 427.521 61.6699 426.994C60.4609 426.596 59.2518 426.198 58.0409 425.807C56.1638 425.199 54.3407 424.461 52.5208 423.696C49.9877 422.632 47.5563 421.375 45.1274 420.108C44.4583 419.759 43.8057 419.374 43.1542 418.989C42.472 418.586 41.791 418.183 41.0937 417.824C40.2528 417.391 39.4679 416.88 38.6842 416.37C38.2191 416.068 37.7544 415.766 37.2788 415.48C35.842 414.608 34.4602 413.648 33.1414 412.606C32.2225 411.887 31.3255 411.135 30.4295 410.385C29.7841 409.844 29.1393 409.304 28.4869 408.776C26.2609 406.87 24.1523 404.832 22.1728 402.671C21.0559 401.519 20.0175 400.288 18.9787 399.056C18.4152 398.389 17.8517 397.72 17.2754 397.065C15.9903 395.603 14.7404 394.095 13.5028 392.592C10.861 389.391 8.00484 386.404 5.06403 383.487C3.98577 382.417 2.78328 381.505 1.58155 380.593C1.32161 380.396 1.0617 380.199 0.803101 380ZM184.759 0.132812C108.305 0.132812 42.7447 46.7731 14.9782 113.153C16.0344 114.559 17.0772 115.976 18.0842 117.419C19.994 120.18 22.4589 122.513 25.3215 124.267C28.3976 126.148 31.425 128.105 34.4527 130.063C39.3677 133.24 44.2836 136.419 49.4109 139.273C57.2185 143.622 65.154 147.583 73.7745 150.047C85.5678 153.415 97.6748 154.258 109.866 154.08C111.132 154.08 112.398 154.084 113.664 154.087C116.45 154.094 119.236 154.102 122.021 154.073C130.838 153.963 139.634 153.161 148.326 151.676C160.919 149.554 172.706 145.18 184.066 139.412C195.698 133.506 206.047 126.009 214.433 115.956C231.967 94.9322 235.589 71.3491 227.062 45.6742C225.579 41.21 223.852 36.827 222.124 32.4438L222.124 32.4433C221.233 30.1833 220.342 27.9232 219.485 25.6519C216.603 18.0189 214.697 10.3067 214.178 2.47255C204.599 0.932872 194.772 0.132812 184.759 0.132812Z" fill="#A6BFCD"/>
</svg>
