<svg width="285" height="268" viewBox="0 0 285 268" fill="none" xmlns="http://www.w3.org/2000/svg">
<mask id="mask0" mask-type="alpha" maskUnits="userSpaceOnUse" x="0" y="0" width="285" height="268">
<rect width="285" height="268" fill="#FFF4E8"/>
</mask>
<g mask="url(#mask0)">
<path d="M144.366 349.842C143.543 349.49 142.597 350.583 142.287 349.201C142.262 349.089 141.24 349.327 140.755 349.17C139.236 348.653 137.661 348.317 136.064 348.17C135.511 348.067 134.993 347.828 134.557 347.474C132.541 346.08 130.495 344.755 128.063 344.219C127.723 344.144 127.976 342.603 127.099 343.841C126.982 344.006 126.322 343.708 125.94 343.779C125.447 343.88 124.939 343.878 124.447 343.773C123.955 343.668 123.49 343.463 123.08 343.169C122.661 342.838 122.301 342.437 122.016 341.983C121.387 340.91 120.7 339.871 119.959 338.872C117.515 336.039 115.598 332.834 113.409 329.822C112.626 328.743 111.979 327.571 111.225 326.469C110.471 325.367 109.557 324.373 108.926 323.218C107.942 321.526 106.833 319.911 105.608 318.385C104.482 316.904 103.565 315.263 102.539 313.704C100.439 310.512 98.4794 307.212 96.1587 304.191C94.8724 302.516 94.4506 300.561 93.5105 298.799C93.4541 298.692 93.5335 298.514 93.549 298.369C92.0769 298.888 92.2019 297.339 91.7623 296.781C90.0149 294.551 88.5549 292.101 86.8826 289.804C86.3845 289.121 86.406 289.105 86.6877 287.816C86.2642 287.715 85.5498 287.727 85.4644 287.5C84.6008 285.199 82.3977 283.658 81.9018 281.149C81.8447 280.859 81.4144 280.647 81.169 280.387C80.8639 280.064 80.3719 279.765 80.3044 279.394C79.8249 276.746 77.6361 275.155 76.4218 272.966C75.6915 271.651 75.2439 270.17 74.0088 269.108C73.5823 268.742 73.6908 267.75 73.4703 266.602C71.9867 265.983 70.8427 264.456 70.372 262.419C70.3284 262.233 70.3341 261.98 70.215 261.873C67.5421 259.502 66.9548 255.717 64.4048 253.25C64.2112 253.06 64.4508 252.419 64.4953 251.919C62.8378 251.298 61.9937 249.841 61.1796 248.236C60.2095 246.432 59.136 244.685 57.9644 243.004C56.3954 240.721 54.98 238.335 53.7278 235.864C53.3414 235.069 52.757 234.373 52.3156 233.602C51.9412 232.951 51.9375 232.047 51.2653 231.62C50.0506 230.848 50.7577 229.001 49.3615 228.38C49.1013 226.777 47.6302 225.839 47.1396 224.4C46.6315 222.911 45.4903 221.739 45.0072 220.365C44.2079 218.094 42.8323 216.156 41.8331 214.018C40.9398 212.105 40.3097 209.953 38.7488 208.371C37.6352 204.892 35.0939 202.178 33.6733 198.846C33.0093 197.29 31.9777 195.892 31.2103 194.355C30.7669 193.569 30.3879 192.748 30.077 191.901C29.9914 191.627 30.0171 191.208 29.8374 191.089C28.2979 190.069 27.8976 188.458 27.514 186.829C26.4622 186.481 26.7103 185.429 26.3538 184.701C25.9141 184.025 25.5362 183.312 25.2246 182.568C24.0536 178.286 22.198 174.239 21.1295 169.905C20.2321 166.268 18.2769 162.884 17.7842 159.137C17.2298 154.917 15.9982 150.752 16.6604 146.398C16.8998 144.351 17.3679 142.339 18.0558 140.398C18.7969 138.576 19.6858 136.819 20.7136 135.143C21.7501 133.32 23.3607 131.894 25.2933 131.088C26.1027 130.718 26.865 130.251 27.5638 129.7C28.7623 128.902 30.0231 128.202 31.3339 127.607C33.0197 126.842 34.7599 126.203 36.5403 125.697C38.5896 124.991 40.6999 125.548 42.7683 125.288C43.0247 125.255 43.3634 125.866 43.4822 125.99C44.0293 125.801 44.5003 125.467 44.9096 125.531C45.8747 125.718 46.8257 125.972 47.7559 126.291C48.5449 126.481 49.3133 126.749 50.0497 127.091C50.8276 127.512 51.4444 128.244 52.2324 128.635C52.9332 128.982 53.8818 128.87 54.5256 129.274C55.5758 129.934 56.0895 131.241 57.3285 131.779C57.7867 131.978 58.0413 132.629 58.4968 132.858C59.7656 133.496 60.5379 134.67 61.5774 135.506C62.5231 136.266 62.5886 137.63 63.9731 138.117C65.0605 138.499 65.8327 139.726 66.8072 140.508C67.8839 141.222 68.9193 141.997 69.9085 142.828C72.0685 145.026 74.8956 146.451 76.8222 148.907C77.0399 149.187 77.3705 149.592 77.6402 149.585C79.5653 149.541 80.3266 151.41 81.8163 152.052C81.9041 152.966 82.4667 152.749 83.0513 152.615C83.1763 152.587 83.3062 152.587 83.4313 152.615C83.5564 152.643 83.6737 152.7 83.7745 152.779C84.8694 154.163 86.4526 154.589 87.9981 155.215C89.1595 155.688 90.0873 156.717 91.163 157.432C92.0147 158.054 92.935 158.577 93.9055 158.988C94.832 159.33 95.1225 160.668 96.3361 160.442C96.482 162.002 98.2312 161.576 98.8527 162.472C99.5361 163.458 100.898 163.178 101.614 164.33C102.15 165.193 103.514 165.54 104.509 166.115L107.76 168.001L108.197 167.334C108.309 167.789 109.497 167.31 109.058 168.374C108.946 168.646 109.375 169.375 109.734 169.567C111.071 170.292 112.122 171.569 113.659 171.848C114.753 172.048 115.11 172.925 115.807 173.493C117.105 174.553 118.745 175.197 120.252 175.995C120.392 176.069 120.724 175.94 120.764 176.018C122.279 178.872 125.715 178.713 127.849 180.577C128.867 181.467 129.848 182.405 130.869 183.339C131.238 182.342 131.848 182.298 132.605 182.788C132.642 182.595 132.754 182.39 132.696 182.251C132.231 181.163 132.002 179.76 131.183 179.09C130.039 178.156 130.357 176.719 129.397 175.724C128.506 174.799 128.171 173.324 127.611 172.083C127.189 170.876 126.663 169.708 126.039 168.593C124.251 165.988 123.464 162.869 121.548 160.314C120.642 159.105 120.346 157.445 119.724 156.011C119.462 155.148 119.029 154.347 118.45 153.656C117.737 153.017 117.799 152.002 117.273 151.551C116.604 150.977 116.544 150.297 116.226 149.645C115.399 147.946 114.573 146.239 113.601 144.619C111.932 141.843 110.141 139.137 109.037 136.059L107.567 134.056C106.211 133.217 106.198 131.564 105.386 130.372C104.673 129.325 103.439 128.361 103.836 126.771C103.855 126.669 103.852 126.565 103.827 126.465C103.803 126.365 103.758 126.271 103.695 126.189C101.57 123.75 99.8428 120.99 98.5763 118.012C98.5311 117.888 98.6386 117.626 98.5881 117.6C96.8442 116.715 97.1924 114.465 95.8175 113.35C95.2559 110.404 92.9666 108.177 92.4305 105.214C92.3086 104.878 92.1229 104.569 91.8836 104.303C91.0037 103.016 90.1017 101.747 89.888 100.131C89.7486 99.3136 89.3558 98.5601 88.7654 97.978C88.2332 97.3887 88.4878 96.4332 87.7595 95.7246C86.7949 94.7899 86.786 93.259 86.0565 92.0344C84.6111 89.6173 83.7126 86.8717 82.606 84.2556C81.635 82.0263 80.5488 79.849 79.352 77.7326C78.6109 76.3901 78.2067 74.8605 77.4292 73.5048C76.625 72.1025 76.2112 70.4918 75.1477 69.2198C75.0035 68.9777 74.9075 68.7099 74.865 68.4312C74.5697 67.1735 74.071 65.9725 73.3888 64.8758C72.6947 63.8551 72.9514 62.2917 71.7916 61.4043C71.0962 58.8092 70.4142 56.2104 69.7015 53.6199C69.1384 51.6794 68.9197 49.6552 69.0554 47.6398C69.1947 45.7155 68.9034 43.6981 68.857 41.7125C68.7252 38.7725 68.8593 35.8269 69.2577 32.9118C69.4452 31.7272 69.1875 30.5444 69.3894 29.4455C69.942 26.4436 71.1289 23.7515 73.9498 22.0797C74.9414 21.4205 76.0338 20.9278 77.184 20.6208C78.8703 20.2681 80.5353 19.8207 82.1713 19.2809C84.2717 18.6494 86.4914 18.522 88.6513 18.9089C93.8935 19.6584 99.0282 20.9982 103.088 24.8116C104.58 24.6404 104.774 26.1797 105.672 26.7983C106.571 27.4169 107.394 28.148 108.242 28.8396C108.91 29.3841 108.895 30.1228 108.766 30.9336C109.799 31.0148 110.466 31.6132 111.254 32.2542C112.508 33.2726 112.592 34.9472 113.963 35.9412C115.103 36.7667 115.685 38.3853 116.865 39.3689C116.414 40.7739 118.602 40.7405 118.323 42.0513C119.667 42.5355 118.91 44.4484 119.913 44.7877C120.87 45.1948 121.731 45.7971 122.443 46.5561C123.69 47.6499 124.177 49.4945 125.834 50.2653C125.505 50.6815 125.414 50.998 126.013 51.3217C126.104 51.3687 125.695 52.1667 126.421 52.4411C127.712 52.9573 128.785 53.9046 129.459 55.1226C130.144 56.2683 131.231 57.0712 131.75 58.434C132.066 59.263 132.391 60.4823 133.18 60.9433C134.076 61.4674 134.308 62.3504 134.924 62.9948C135.607 63.7105 136.365 64.3773 136.523 65.4732C136.591 65.6405 136.694 65.7918 136.824 65.9172C136.954 66.0427 137.108 66.1396 137.278 66.2018C137.535 66.3171 137.758 66.4972 137.926 66.7245C138.094 66.9518 138.2 67.2186 138.234 67.4989C138.422 68.2472 138.333 69.2886 139.673 69.0763C139.785 69.0584 139.954 69.9126 140.223 70.2646C141.515 71.9578 142.985 73.5213 143.925 75.4664C143.987 75.6349 144.098 75.7811 144.243 75.8863C145.667 76.5897 146.151 77.9637 146.92 79.2151C147.375 79.9583 147.594 81.1494 148.854 81.4441C149.663 81.6334 149.055 82.3428 148.9 82.8231C150.667 83.1118 150.203 85.4918 151.824 85.9662C152.063 86.0368 152.176 86.566 152.333 86.8899C152.489 87.2139 152.555 87.7614 152.793 87.8508C153.599 88.1499 153.656 88.8205 153.967 89.4535C154.238 90.0053 155.494 90.3549 155.463 90.7176C155.383 91.6393 156.179 91.7898 156.43 92.3526C156.726 93.0202 157.017 93.6908 157.309 94.3602C157.382 94.5283 157.405 94.7735 157.532 94.8533C159.328 95.9913 159.744 98.3727 161.893 99.3049L160.325 101.053C160.493 101.189 160.598 101.344 160.726 101.368C161.422 101.494 162.14 101.53 162.817 101.719C163.126 101.807 163.631 102.262 163.587 102.403C163.073 104.011 164.235 103.862 165.253 103.961L165.905 106.391C166.944 106.209 167.594 106.77 167.33 107.555C167.236 107.743 167.19 107.953 167.198 108.164C167.205 108.375 167.265 108.581 167.372 108.763C167.48 108.945 167.631 109.097 167.812 109.205C167.993 109.314 168.198 109.375 168.408 109.384C168.828 109.393 169.229 109.555 169.539 109.839C169.848 110.124 170.043 110.511 170.088 110.929C170.17 111.26 170.374 111.731 170.635 111.818C172.033 112.297 172.386 113.584 173.138 114.615C173.589 115.232 173.564 116.219 174.587 116.557C175.309 116.794 175.861 117.551 176.496 118.066C177.183 118.667 177.9 119.232 178.645 119.759C179.315 120.195 179.128 120.586 178.911 121.174C178.834 121.383 179.449 121.786 179.599 122.16C179.819 122.804 180.002 123.46 180.147 124.125L181.588 123.075C181.612 123.918 180.998 124.698 182.036 125.059C182.479 125.213 183.217 125.424 182.538 126.171C182.762 126.23 183.067 126.414 183.196 126.329C183.374 126.218 183.527 126.073 183.648 125.902C183.769 125.73 183.855 125.537 183.9 125.332C183.945 125.127 183.95 124.916 183.913 124.709C183.875 124.503 183.798 124.306 183.684 124.129C183.554 123.911 183.195 123.844 183.007 123.644C182.899 123.53 182.925 123.291 182.881 123.055L183.797 122.417C183.549 122.186 183.071 121.859 183.113 121.761C183.497 120.883 182.412 120.145 182.61 119.743C183.126 118.687 182.58 117.882 182.378 117.012C182.123 116.038 182.044 115.026 182.145 114.024C182.186 113.212 182.021 112.403 181.665 111.673C181.115 110.359 180.375 108.906 181 107.343C180.002 106.583 180.553 105.409 180.288 104.454C179.926 103.133 179.101 101.888 179.539 100.35C179.891 99.116 178.497 97.8961 179.302 96.5703C178.672 94.986 178.916 93.2398 178.511 91.6647C177.744 88.6806 177.65 85.6177 177.474 82.6282C177.261 79.1616 177.381 75.6829 177.833 72.2403C178.362 67.5397 179.44 62.9185 181.046 58.4717C182.142 55.6315 182.36 52.2994 184.985 50.1559C185.131 50.0366 185.01 49.63 185.094 49.3849C185.826 47.3826 187.157 45.6565 188.905 44.4421C189.507 44.0562 190.059 43.5978 190.549 43.077C191.086 42.3441 191.839 41.7977 192.701 41.5142C193.537 41.1881 194.343 40.788 195.108 40.3185C195.917 39.9263 197.063 40.2086 197.519 39.0847C197.561 38.9773 197.874 38.9895 198.054 38.9262C200.147 38.17 202.25 37.4396 204.325 36.6358C205.157 36.3131 205.886 35.6511 206.734 35.4518C208.152 35.1183 209.64 35.1028 211.076 34.8211C212.481 34.544 213.834 33.9489 215.245 33.7685C216.75 33.5541 218.277 33.5477 219.784 33.7496C221.369 33.9894 223.037 33.5455 224.531 34.2366C225.944 34.8905 227.628 34.7918 228.88 35.5141C230.148 36.2485 232.155 36.0909 232.609 38.0741C232.646 38.2368 232.992 38.3946 233.217 38.4376C235.499 38.8681 236.559 40.8005 237.84 42.3664C238.559 43.3139 239.056 44.4119 239.292 45.5783C239.526 46.6177 240.543 45.7158 240.767 46.4283C240.881 46.9785 241.071 47.51 241.333 48.0069C242.262 49.2332 242.986 50.6032 243.475 52.0628C243.537 52.3279 243.669 52.5715 243.857 52.7683C245.491 54.2175 245.924 56.3343 246.882 58.1582C247.3 58.9555 248.128 59.8216 248.021 60.5435C247.869 61.5781 248.433 62.1796 248.779 62.8604C249.878 65.0238 250.382 67.4806 252.099 69.3572C252.621 69.9263 252.489 71.1406 253.038 71.628C253.655 72.1788 253.361 72.8877 253.85 73.4908C254.692 74.3532 255.249 75.4539 255.446 76.6437C255.538 77.7241 256.636 78.4182 256.849 79.5943C257.035 80.6295 257.758 81.5593 258.166 82.5672C258.574 83.5751 258.493 84.8135 259.555 85.5336C259.676 85.6152 259.652 85.8944 259.715 86.0751C260.772 89.2862 261.573 92.6115 262.944 95.6814C265.567 101.554 266.456 107.9 268.365 113.96C268.637 114.825 268.595 114.838 269.934 115.854C269.665 114.565 269.452 113.522 269.173 112.19C269.623 112.27 270.238 112.246 270.291 112.407C270.727 113.677 271.077 114.976 271.34 116.293C271.424 116.745 271.093 117.274 270.957 117.748C270.06 117.622 270.778 115.648 269.239 116.495C269.998 117.318 270.162 118.483 271.369 119.09C272.36 119.588 271.407 121.172 272.143 122.082C272.164 122.108 272.012 122.242 272.015 122.323C272.054 123.493 271.567 124.682 271.655 125.737C271.738 126.735 272.852 127.64 273.474 128.615C273.579 128.905 273.633 129.21 273.636 129.518L272.434 129.242C273.602 131.436 275.097 133.484 273.627 136.052C275.576 137.307 274.508 139.34 274.778 141.048C274.839 141.432 274.063 141.949 273.564 142.531L275.285 142.342C275.101 143.662 275.286 145.008 275.818 146.23C275.927 146.579 275.96 146.947 275.915 147.309C275.828 148.364 275.972 149.425 276.338 150.418C276.449 150.951 276.5 151.494 276.49 152.038C276.586 152.575 276.627 153.12 276.615 153.664C276.521 154.454 278.027 154.856 277.167 155.685C276.418 156.406 277.327 157.172 276.899 157.807C276.768 158.002 276.44 158.064 275.663 158.464L277.519 158.459C277.323 158.756 277.468 158.535 277.617 158.309C278.714 159.219 277.745 160.485 278.171 161.403C278.719 162.585 277.721 163.337 277.552 164.517L279.018 164.709C279.341 166.361 280.168 167.935 279.463 169.796C279.075 170.816 279.76 172.24 281.135 174.234C280.773 174.05 280.392 173.907 279.998 173.807C279.697 173.839 279.401 173.912 279.12 174.025L281.411 176.022C281.038 176.97 280.647 177.896 281.564 178.82C281.741 178.999 281.679 179.542 281.567 179.86C281.423 180.155 281.394 180.494 281.484 180.81C281.574 181.127 281.778 181.399 282.056 181.574C282.257 181.724 282.528 182.155 282.485 182.205C281.25 183.588 283.639 183.972 283.268 185.101C283.052 185.762 282.873 186.434 282.745 186.878C283.219 187.209 283.62 187.459 283.988 187.751C284.764 188.367 283.591 189.345 284.534 190.153C285.135 190.668 285.204 191.907 285.34 192.849C285.816 196.159 287.867 198.935 288.458 202.2C289.714 203.592 289.801 205.44 290.386 207.097C290.787 208.109 291.245 209.099 291.757 210.06C292.194 210.96 292.086 211.985 292.919 212.867C293.617 213.604 293.472 215.077 294.019 216.043C294.374 216.671 295.227 216.995 294.445 217.842C295.347 218.138 295.31 218.988 295.519 219.686C296.099 221.408 296.891 223.051 297.879 224.576C298.299 225.208 298.526 225.949 298.532 226.708C298.468 227.468 299.987 227.586 299.11 228.482C299.771 229.355 300.234 230.362 300.464 231.432C300.705 232.408 301.127 233.33 301.71 234.149C302.73 235.888 303.62 237.7 304.373 239.57C304.715 240.613 305.159 241.619 305.699 242.574C306.059 243.122 306.289 243.745 306.371 244.396C306.453 245.046 306.386 245.706 306.175 246.326C305.993 246.778 305.994 247.283 306.177 247.735L307.166 246.377C308.294 247.387 307.329 248.229 306.882 249.241C307.545 249.672 307.649 250.747 308.836 250.714C309.056 250.708 309.363 251.598 309.524 252.105C309.909 253.314 309.867 254.431 308.35 255.133C309.646 255.21 310.296 255.604 309.988 256.812C309.956 256.939 310.616 257.405 311.087 257.448C310.394 258.859 311.752 260.488 310.478 262.035L311.857 261.353C312.099 262.773 312.786 264.391 312.506 265.817C312.193 267.405 313.451 268.895 312.348 270.499L310.481 271.167C310.505 271.259 310.525 271.351 310.547 271.443L312.302 271.309C312.536 272.514 312.508 273.756 312.219 274.95C311.661 278.421 310.68 281.811 309.298 285.042C308.62 286.707 307.734 288.221 306.947 289.808C306.206 291.307 305.593 292.88 304.779 294.338C302.704 298.055 300.524 301.702 297.148 304.435C295.964 306.9 293.677 308.308 291.743 310.037C288.574 312.734 285.238 315.226 281.754 317.499C279.926 318.752 278.101 320.014 276.21 321.165C274.319 322.317 272.15 323.041 270.478 324.597C270.168 324.807 269.809 324.935 269.435 324.969C267.893 325.238 266.465 325.956 265.33 327.035C265.037 327.246 264.714 327.412 264.371 327.526C263.395 328.002 262.218 327.791 261.351 328.853C260.805 329.522 259.335 329.142 258.736 330.215C258.671 330.332 258.384 330.33 258.197 330.371C254.332 331.236 250.865 333.317 246.937 334.023C245.629 334.13 244.385 334.629 243.364 335.454C243.015 335.784 242.566 335.987 242.088 336.029C241.61 336.072 241.132 335.952 240.729 335.69C240.321 336.622 239.39 336.586 238.616 336.802C236.404 337.42 234.161 337.933 231.972 338.621C230.857 338.972 229.505 338.761 228.708 340.033C228.289 340.7 227.313 339.09 226.78 340.263C225.22 340.413 223.987 341.464 222.458 341.779C220.212 342.238 217.783 342.531 215.861 343.639C213.901 344.77 211.809 345.045 209.789 345.705C207.608 346.416 205.347 346.874 203.15 347.539C202.389 347.809 201.676 348.199 201.038 348.695C200.398 349.153 199.407 348.068 198.99 349.223C198.139 349.133 197.22 348.788 196.676 349.843C195.759 349.135 195.357 350.34 194.64 350.389C193.922 350.438 193.315 350.806 192.462 350.589C191.645 350.378 190.616 350.813 189.735 351.121C186.546 352.237 183.177 352.407 179.907 352.431C176.709 352.54 173.507 352.478 170.315 352.245C169.845 352.232 169.378 352.323 168.947 352.512C165.774 353.703 162.357 353.192 159.118 353.918C158.814 353.986 158.443 353.681 158.093 353.631C157.48 353.544 156.859 353.518 156.241 353.471C155.629 353.373 155.008 353.337 154.389 353.364C153.853 353.436 154.39 351.923 153.377 352.784C153.028 353.08 152.268 353.003 151.721 352.921C150.932 352.771 150.154 352.569 149.392 352.317C147.757 351.848 146.124 351.373 144.495 350.89C143.794 350.685 144.004 350.288 144.366 349.842ZM84.675 279.622C83.8872 278.015 83.1911 277.094 83.0121 276.082C82.7712 274.904 82.2287 273.809 81.4379 272.904C80.3685 271.482 79.3989 269.988 78.5362 268.432C77.043 265.999 75.6221 263.521 74.1707 261.063C72.893 258.899 71.1487 256.981 70.6053 254.42C69.2546 253.19 69.4472 250.996 67.677 249.934C67.0218 249.541 66.8934 248.342 66.3687 247.623C66.0852 247.231 67.4557 246.482 66.1356 246.561C64.8399 246.638 66.1783 245.788 65.7218 245.598C64.1352 244.949 63.5269 243.464 62.9141 242.07C62.1494 240.331 60.7907 238.997 59.9364 237.282C59.3277 235.794 58.4761 234.417 57.4165 233.209C56.7101 232.39 56.1834 231.431 55.8706 230.395C54.8305 227.58 53.1227 225.116 51.7001 222.52C50.1429 219.675 48.8555 216.702 47.2605 213.883C47.5914 212.954 45.8828 212.601 46.6047 211.561C46.0056 210.92 45.4461 210.242 44.9291 209.532C44.436 208.774 44.4489 207.852 43.8668 207.002C42.4347 204.725 41.1315 202.368 39.9633 199.945C39.1195 198.355 38.3649 196.714 37.4699 195.154C36.4962 193.458 35.1317 191.937 34.4283 190.146C33.1596 186.915 31.43 183.901 30.1545 180.71C28.9802 177.772 27.5482 174.88 27.0056 171.685C26.6437 169.898 26.1766 168.134 25.6065 166.402C25.4002 165.706 25.1018 165.041 24.7192 164.424C24.0294 163.187 23.6314 161.81 23.5558 160.396C23.372 158.047 22.3966 153.613 21.2367 151.296C21.1153 151.909 20.7222 152.63 20.9195 153.108C21.7987 155.243 21.5337 157.533 22.0076 159.722C23.4378 166.329 26.1858 172.528 27.825 179.064C27.8714 179.44 27.9875 179.805 28.1675 180.139C29.8717 182.419 30.6213 185.169 31.8865 187.665C32.1398 188.165 32.193 188.707 32.8138 188.98C33.5849 189.317 32.0388 190.269 33.1079 190.514C34.6303 190.866 33.8882 192.771 35.1645 193.355C35.4559 193.488 35.3121 194.551 35.3967 195.181C35.4126 195.372 35.4977 195.55 35.6358 195.682C36.6323 196.376 36.6385 196.367 36.3575 197.589C36.8921 198.025 38.0516 198.071 37.3926 199.253C38.461 200.106 38.273 201.915 39.8125 202.436C39.9159 202.514 40.002 202.613 40.0652 202.726C40.1285 202.839 40.1675 202.964 40.1798 203.093C39.5679 203.741 40.2199 203.933 40.5089 204.342C40.87 204.853 40.931 205.59 41.3145 206.069C42.7089 207.627 43.7049 209.501 44.2164 211.529C44.4116 212.234 44.7995 212.87 45.3363 213.366C45.8091 213.917 46.4145 214.369 46.432 215.21C46.4511 216.124 47.6175 216.746 47.1197 217.806C48.5629 218.688 48.6513 220.457 49.5695 221.619C51.7104 224.326 52.2465 227.923 54.6646 230.436C55.0895 232.243 56.3287 233.651 57.0511 235.275C57.7293 236.802 59.0374 238.029 59.1601 239.879C59.2111 240.653 59.9391 241.493 60.5587 242.097C61.2437 242.764 60.905 243.843 61.9131 244.46C62.6316 244.9 62.6783 246.684 63.3481 246.913C64.7035 247.376 63.2451 248.749 64.3379 249.031C65.5547 251.755 68.2186 253.45 69.405 256.196C70.8002 256.467 70.7532 257.84 71.3466 258.724C71.992 259.689 72.861 260.503 73.1626 261.693C73.2746 262.135 73.64 262.51 73.7719 262.951C73.9203 263.447 73.7987 264.059 74.0393 264.482C74.4754 265.254 75.9774 265.423 75.3163 266.815C75.9856 267.466 76.6984 268.079 77.3092 268.78C77.7713 269.311 77.9801 270.127 78.5174 270.515C79.6398 271.324 79.2456 272.891 80.1366 273.626C81.235 274.527 80.6174 276.031 81.7043 276.761C82.9454 277.131 83.0886 278.649 84.675 279.622ZM111.09 220.948C111.282 221.868 111.242 222.507 111.532 222.907C112.571 224.338 113.712 225.695 114.838 227.06C115.122 227.404 115.554 227.628 115.818 227.982C116.505 228.905 116.771 230.188 117.918 230.714C118.975 231.195 118.29 233.335 120.142 232.976C121.308 235.313 123.433 236.964 124.688 239.177C125.469 240.557 126.916 241.319 127.48 242.726C128.431 245.097 131.024 246.359 131.581 248.97C131.607 249.095 131.93 249.132 132.054 249.267C132.958 250.242 134.181 251.1 134.655 252.258C135.225 253.655 136.842 254.272 136.992 255.863C136.996 255.904 137.261 255.921 137.403 255.95C137.503 255.24 137.602 254.557 137.702 253.827L136.473 253.713C136.253 252.909 135.975 252.122 135.64 251.358C135.257 250.616 134.195 249.883 134.298 249.306C134.483 248.262 133.36 248.147 133.346 247.244C133.337 246.651 132.461 245.806 131.793 245.543C130.652 245.096 131.484 243.571 130.872 243.577C129.271 243.593 130.17 242.249 129.633 241.744C129.052 241.194 128.499 240.613 127.977 240.006C127.397 239.338 126.868 238.626 126.307 237.941C125.802 237.325 125.247 236.746 124.779 236.103C124.257 235.383 123.855 234.58 123.318 233.877C122.807 233.261 122.264 232.672 121.693 232.112C121.144 231.529 120.577 230.963 120.042 230.367C119.45 229.708 118.862 229.042 118.315 228.347C117.823 227.721 117.452 226.992 116.911 226.415C116.358 225.822 115.638 225.396 115.05 224.826C114.412 224.209 113.874 223.494 113.246 222.868C112.67 222.294 112.032 221.781 111.091 220.948L111.09 220.948ZM291.305 294.969C292.983 292.069 294.51 289.561 295.203 286.62C296.2 282.589 296.233 278.378 295.302 274.329C295.149 273.681 295.459 272.751 295.106 272.361C294.423 271.61 294.253 271.008 294.747 270.154C294.765 270.063 294.759 269.969 294.73 269.88C294.701 269.792 294.649 269.712 294.581 269.649C293.554 269.257 293.61 268.262 293.486 267.489C293.126 265.239 291.699 263.468 290.985 261.377C290.83 262.174 290.837 262.995 291.004 263.79C291.115 264.456 291.189 265.127 291.224 265.801C291.418 266.639 291.687 267.46 291.878 268.298C292.115 269.001 292.231 269.739 292.222 270.48C292.128 271.194 292.6 271.71 292.49 272.478C292.301 273.81 293.448 275.006 293.073 276.571C292.752 277.909 294.304 279.433 292.892 280.816C293.151 280.918 293.375 281.093 293.536 281.321C293.696 281.548 293.787 281.818 293.797 282.096C293.869 283.04 292.359 287.806 291.617 288.7C291.06 289.37 291.469 290.566 290.371 290.904C290.515 291.636 290.649 292.37 290.807 293.098C290.908 293.558 291.048 294.011 291.305 294.969ZM184.342 101.362C182.968 101.833 183.18 102.69 183.556 103.605C183.954 104.573 184.463 106.685 184.297 107.543C184.194 108.077 184.163 108.375 184.637 108.705C185.979 109.635 184.368 109.745 184.168 110.306L185.537 110.55C185.247 111.961 185.136 113.403 185.207 114.842C185.326 115.843 186.249 116.443 186.069 117.434C186.022 117.578 185.954 117.714 185.867 117.838L185.071 117.478C184.728 118.907 186.048 118.244 186.228 118.463L186.92 121.045L186.046 121.626L187.775 122.929L186.712 124.35C187.913 125.402 188.077 126.655 188.066 127.979C188.064 128.181 188.103 128.551 188.163 128.56C189.602 128.763 189.219 130.37 190.114 131.253C191.014 128.858 189.469 127.024 189.339 124.63C189.463 124.48 189.812 124.057 190.122 123.68C189.068 122.343 188.908 122.309 189.078 121.41C189.269 120.398 188.225 119.984 188.274 119.067C188.294 118.074 188.227 117.08 188.074 116.097C188.049 115.889 187.685 115.74 187.534 115.526C187.359 115.326 187.248 115.078 187.216 114.814C187.263 113.841 187.377 112.872 187.467 111.901C186.2 111.19 186.903 110.027 186.777 109.044C186.737 108.735 186.38 108.471 186.187 108.175C186.04 107.951 185.756 107.574 185.818 107.497C186.51 106.654 185.519 105.715 185.838 105.094C186.416 103.974 185.281 103.405 185.315 102.758C185.458 100.094 184.098 97.8204 183.724 95.3167C183.611 94.555 183.549 93.7882 183.455 92.9574C183.254 93.022 182.863 93.0302 182.786 93.1903C182.378 94.0438 183.542 94.9794 182.706 95.8774C182.928 96.1323 183.136 96.3994 183.329 96.6773C183.459 96.9646 183.588 97.4435 183.446 97.6333C182.314 99.1419 183.299 100.209 184.342 101.362ZM119.621 145.212L119.254 145.357C119.484 146.059 119.669 146.775 119.807 147.501C119.87 148.387 119.885 149.275 119.851 150.163L120.693 148.918C121.379 150.394 121.945 151.801 122.669 153.122C123.834 155.249 125.034 157.353 126.043 159.562C126.571 160.719 127.434 161.725 127.602 163.045C129.024 163.615 128.41 165.335 129.513 166.291C130.442 167.096 130.604 168.75 131.218 169.971C131.88 171.29 132.69 172.535 132.883 174.037C134.019 174.585 133.573 176.105 134.251 176.638C135.342 177.495 135.074 178.698 135.585 179.658C135.792 180.047 136.076 180.395 136.307 180.773C136.846 181.482 137.296 182.255 137.644 183.075C138.2 184.934 139.476 186.389 140.275 188.109C140.601 188.81 141.469 189.258 142.379 190.082C142.277 189.376 142.331 189.037 142.186 188.856C140.852 187.061 139.771 185.09 138.975 182.999C137.6 179.719 135.245 176.908 134.487 173.362C133.113 172.52 133.416 170.761 132.388 169.613C131.469 168.584 131.443 166.767 130.556 165.682C129.73 164.674 129.705 163.462 129.058 162.479C126.495 158.583 124.631 154.295 122.351 150.24C121.417 148.58 120.53 146.891 119.621 145.212ZM262.139 99.6012C261.793 98.3123 261.194 97.0277 261.174 95.734C261.153 94.4404 259.225 93.7913 260.18 92.3085C258.808 91.63 259.234 90.14 258.728 89.0705C258.221 88.0009 257.713 86.9317 257.27 85.8358C256.578 84.1227 256.234 82.1746 255.188 80.7285C254.348 79.569 254.443 78.1673 253.69 77.191C252.777 76.0076 252.51 74.6868 252.145 73.3568C251.869 72.5938 251.499 71.8684 251.042 71.198C250.513 70.3929 249.909 69.6397 249.238 68.9486C250.525 67.8876 247.595 67.2131 248.977 66.1426C248.727 65.7881 248.446 65.4558 248.139 65.1495C247.818 64.8776 247.21 64.7869 247.757 64.1892L246.854 63.3963L245.089 65.3388C245.762 65.7434 246.492 66.0421 247.255 66.2244C248.302 66.2919 247.642 66.698 247.536 67.0248C248.624 67.3535 247.978 68.2964 248.234 68.9018C248.482 69.4871 248.443 70.1307 248.732 70.6662C249.212 71.558 249.277 72.8898 250.829 72.7805L249.827 73.6327C251.074 74.1271 250.71 75.0612 250.543 75.9923L252.324 75.7924C252.314 76.4476 252.279 76.9746 252.307 77.4986C252.28 77.828 252.355 78.1578 252.521 78.4438C253.781 79.7334 254.737 81.2898 255.318 82.9981C255.541 83.832 255.529 84.8693 256.034 85.4559C257.287 86.915 257.51 88.579 257.572 90.3526C257.578 90.5443 257.68 90.8622 257.805 90.9005C258.807 91.2047 258.944 92.064 259.161 92.8911C259.574 94.4676 259.979 96.0476 260.439 97.611C260.57 98.0571 261.16 98.5549 261.053 98.8507C260.669 99.9042 261.778 99.4329 262.139 99.6012ZM212.532 198.906C212.52 197.525 211.547 196.239 212.166 194.841C211.34 192.556 212.361 190.087 211.47 187.807C212.147 186.695 211.122 185.628 211.338 184.589C211.787 182.425 210.935 180.311 211.233 178.164C211.263 177.948 210.839 177.668 210.626 177.417C210.443 177.669 210.167 177.898 210.093 178.176C209.519 180.335 209.618 182.563 209.42 184.762C209.155 186.696 209.125 188.656 209.33 190.598C209.784 193.484 210.77 196.286 211.543 199.172L212.532 198.906ZM147.715 324.233C148.602 325.697 149.247 327.181 150.265 328.331C151.317 329.517 152.224 330.922 153.711 331.424L153.361 333.666C154.486 332.247 155.392 332.102 156.425 332.894C156.873 333.234 157.629 333.388 157.81 333.812C158.36 335.092 158.965 334.154 159.796 334.029C157.365 332.603 155.852 330.485 154.156 328.611C152.461 326.737 150.348 325.542 148.412 324.057C148.323 323.988 148.061 324.14 147.715 324.233ZM295.677 256.944C294.959 255.964 294.476 255.547 294.301 255.021C293.831 253.43 293.237 251.879 292.526 250.381C291.747 248.864 290.909 247.366 290.18 245.842C289.087 243.557 287.318 241.556 286.969 238.922C286.963 238.873 286.7 238.857 286.483 238.81C286.71 241.599 288.261 243.847 289.216 246.317C289.827 247.96 290.556 249.557 291.398 251.094C291.625 251.495 291.443 252.128 291.449 252.811C291.813 252.964 292.155 253.165 292.466 253.408C292.589 253.518 292.277 254.103 292.399 254.223C292.735 254.543 293.332 254.64 293.57 254.996C293.761 255.284 293.58 255.82 293.557 256.424L295.677 256.944ZM206.121 138.797L205.644 138.901C205.687 141.574 205.931 144.262 205.714 146.914C205.46 149.589 205.414 152.28 205.576 154.962C206.671 154.043 207.281 153.204 207.228 151.969C207.149 150.094 207.614 148.202 207.042 146.341C207.838 145.048 206.489 143.934 206.763 142.56C206.995 141.398 206.369 140.061 206.122 138.8L206.121 138.797Z" fill="#1B1D1E"/>
</g>
</svg>
