<svg width="50" height="50" viewBox="0 0 50 50" fill="none" xmlns="http://www.w3.org/2000/svg">
<path d="M17 10C12.043 10 8 14.043 8 19V35C8 35.5508 8.44922 36 9 36H28V46H30V36H32V46H34V36H47C47.5508 36 48 35.5508 48 35V19C48 14.043 43.957 10 39 10H17ZM17 12C20.8789 12 24 15.1211 24 19V34H10V19C10 15.1211 13.1211 12 17 12ZM22.625 12H39C42.8789 12 46 15.1211 46 19V34H26V19C26 16.1719 24.6758 13.6523 22.625 12ZM32 17C30.8945 17 30 17.8945 30 19C30 20.1055 30.8945 21 32 21C32.7383 21 33.3711 20.5977 33.7188 20H39V24H43V18H33.7188C33.3711 17.4023 32.7383 17 32 17ZM13.7188 20C13.168 20.0781 12.7812 20.5898 12.8594 21.1406C12.9375 21.6914 13.4492 22.0781 14 22H20C20.3594 22.0039 20.6953 21.8164 20.8789 21.5039C21.0586 21.1914 21.0586 20.8086 20.8789 20.4961C20.6953 20.1836 20.3594 19.9961 20 20H14C13.9688 20 13.9375 20 13.9062 20C13.875 20 13.8438 20 13.8125 20C13.7812 20 13.75 20 13.7188 20Z" fill="#1B1D1E"/>
</svg>
