<svg width="50" height="50" viewBox="0 0 50 50" fill="none" xmlns="http://www.w3.org/2000/svg">
<path d="M27 8C29.732 8 30.63 8.537 31.767 9.217C33.218 10.085 34.863 11.069 39 11.075V16C35.719 16 34.652 15.331 33.522 14.622C32.309 13.862 30.934 13 28 13C27.673 13 27.331 13.04 27 13.146V8ZM25 33.61V36C25 39.8 24.171 42 19.936 42C14 42 14 39.688 14 38C14 36.663 14 35 20 35C22.364 35 23.947 34.434 25 33.61ZM27 6C25.4 6 25 7 25 8V29C25 31.214 23.967 33 20 33C14.339 33 12 34.464 12 38C12 40.383 12.489 44 19.936 44C26.855 44 27 38.682 27 36C27 34.973 27 32.097 27 29V17C27.005 15.645 27.2 15 28 15C33.138 15 31.871 18 39 18C39 18 41 18 41 16.301C41 13.746 41 11.938 41 10.968C41 9.435 40.312 9.075 39.038 9.075C31.925 9.076 33.674 6 27 6Z" fill="#1B1D1E"/>
</svg>
