<svg xmlns="http://www.w3.org/2000/svg" xmlns:xlink="http://www.w3.org/1999/xlink" width="500" zoomAndPan="magnify" viewBox="0 0 375 374.999991" height="500" preserveAspectRatio="xMidYMid meet" version="1.0"><defs><g/><clipPath id="id1"><path d="M 178 189.785156 L 183.554688 189.785156 L 183.554688 218.269531 L 178 218.269531 Z M 178 189.785156 " clip-rule="nonzero"/></clipPath><clipPath id="id2"><path d="M 156.269531 189.785156 L 162 189.785156 L 162 218.269531 L 156.269531 218.269531 Z M 156.269531 189.785156 " clip-rule="nonzero"/></clipPath></defs><g clip-path="url(#id1)"><path fill="#000000" d="M 179.761719 204.023438 C 177.667969 199.59375 177.761719 194.460938 180.019531 190.101562 C 180.171875 189.8125 180.535156 189.695312 180.828125 189.84375 C 181.125 189.992188 181.246094 190.347656 181.09375 190.640625 C 179.007812 194.671875 178.917969 199.421875 180.859375 203.523438 C 182.949219 207.960938 183.851562 212.851562 183.46875 217.730469 C 183.441406 218.054688 183.148438 218.296875 182.816406 218.269531 C 182.488281 218.242188 182.242188 217.957031 182.265625 217.636719 C 182.628906 212.960938 181.765625 208.277344 179.761719 204.023438 " fill-opacity="1" fill-rule="nonzero"/></g><g clip-path="url(#id2)"><path fill="#000000" d="M 160.0625 204.023438 C 158.058594 208.277344 157.195312 212.960938 157.558594 217.636719 C 157.582031 217.964844 157.328125 218.246094 156.996094 218.269531 C 156.667969 218.289062 156.382812 218.050781 156.355469 217.730469 C 155.972656 212.851562 156.875 207.960938 158.972656 203.523438 C 160.90625 199.421875 160.816406 194.671875 158.730469 190.640625 C 158.578125 190.347656 158.699219 189.992188 158.996094 189.84375 C 159.292969 189.695312 159.652344 189.8125 159.804688 190.101562 C 162.0625 194.460938 162.15625 199.59375 160.0625 204.023438 " fill-opacity="1" fill-rule="nonzero"/></g><path fill="#000000" d="M 170.511719 205.214844 C 170.511719 204.886719 170.246094 204.621094 169.910156 204.621094 C 169.578125 204.621094 169.308594 204.886719 169.308594 205.214844 L 169.308594 206.402344 C 169.308594 206.726562 169.578125 206.996094 169.910156 206.996094 C 170.246094 206.996094 170.511719 206.726562 170.511719 206.402344 L 170.511719 205.214844 " fill-opacity="1" fill-rule="nonzero"/><g fill="#96695e" fill-opacity="1"><g transform="translate(56.716903, 218.046144)"><g><path d="M 18.96875 -1.4375 C 18.519531 -0.78125 18.078125 -0.304688 17.640625 -0.015625 C 17.203125 0.265625 16.617188 0.40625 15.890625 0.40625 C 15.109375 0.40625 14.460938 0.175781 13.953125 -0.28125 C 13.441406 -0.75 13.0625 -1.554688 12.8125 -2.703125 L 12.1875 -5.578125 C 11.957031 -6.566406 11.738281 -7.328125 11.53125 -7.859375 C 11.332031 -8.398438 11.03125 -8.832031 10.625 -9.15625 C 10.226562 -9.488281 9.664062 -9.65625 8.9375 -9.65625 L 6.203125 -9.65625 L 6.203125 -3.046875 C 6.203125 -2.316406 6.257812 -1.789062 6.375 -1.46875 C 6.488281 -1.144531 6.703125 -0.921875 7.015625 -0.796875 C 7.335938 -0.679688 7.84375 -0.609375 8.53125 -0.578125 L 8.53125 0 C 7.65625 -0.0625 6.441406 -0.09375 4.890625 -0.09375 C 3.234375 -0.09375 2.003906 -0.0625 1.203125 0 L 1.203125 -0.578125 C 1.890625 -0.609375 2.390625 -0.679688 2.703125 -0.796875 C 3.023438 -0.921875 3.242188 -1.144531 3.359375 -1.46875 C 3.472656 -1.789062 3.53125 -2.316406 3.53125 -3.046875 L 3.53125 -17.296875 C 3.53125 -18.023438 3.472656 -18.550781 3.359375 -18.875 C 3.242188 -19.195312 3.023438 -19.414062 2.703125 -19.53125 C 2.390625 -19.65625 1.890625 -19.734375 1.203125 -19.765625 L 1.203125 -20.34375 C 2.003906 -20.28125 3.175781 -20.25 4.71875 -20.25 L 7.8125 -20.28125 C 8.175781 -20.300781 8.585938 -20.3125 9.046875 -20.3125 C 11.273438 -20.3125 12.984375 -19.847656 14.171875 -18.921875 C 15.367188 -17.992188 15.96875 -16.789062 15.96875 -15.3125 C 15.96875 -14.5625 15.789062 -13.804688 15.4375 -13.046875 C 15.082031 -12.296875 14.488281 -11.617188 13.65625 -11.015625 C 12.820312 -10.410156 11.738281 -10.003906 10.40625 -9.796875 L 10.75 -9.734375 C 12.007812 -9.523438 12.925781 -9.144531 13.5 -8.59375 C 14.082031 -8.039062 14.503906 -7.160156 14.765625 -5.953125 L 15.484375 -3.015625 C 15.679688 -2.140625 15.882812 -1.523438 16.09375 -1.171875 C 16.300781 -0.828125 16.585938 -0.65625 16.953125 -0.65625 C 17.273438 -0.65625 17.546875 -0.738281 17.765625 -0.90625 C 17.992188 -1.082031 18.25 -1.363281 18.53125 -1.75 Z M 8.328125 -19.765625 C 7.734375 -19.765625 7.285156 -19.695312 6.984375 -19.5625 C 6.691406 -19.425781 6.488281 -19.1875 6.375 -18.84375 C 6.257812 -18.5 6.203125 -17.984375 6.203125 -17.296875 L 6.203125 -10.234375 L 8.125 -10.234375 C 10.019531 -10.234375 11.320312 -10.65625 12.03125 -11.5 C 12.75 -12.34375 13.109375 -13.507812 13.109375 -15 C 13.109375 -16.570312 12.734375 -17.757812 11.984375 -18.5625 C 11.234375 -19.363281 10.015625 -19.765625 8.328125 -19.765625 Z M 8.328125 -19.765625 "/></g></g></g><g fill="#96695e" fill-opacity="1"><g transform="translate(77.411002, 218.046144)"><g><path d="M 10.65625 -20.75 C 12.476562 -20.75 14.070312 -20.335938 15.4375 -19.515625 C 16.8125 -18.691406 17.875 -17.5 18.625 -15.9375 C 19.382812 -14.375 19.765625 -12.507812 19.765625 -10.34375 C 19.765625 -8.238281 19.375 -6.367188 18.59375 -4.734375 C 17.820312 -3.109375 16.742188 -1.84375 15.359375 -0.9375 C 13.972656 -0.0390625 12.394531 0.40625 10.625 0.40625 C 8.8125 0.40625 7.21875 -0.00390625 5.84375 -0.828125 C 4.476562 -1.648438 3.414062 -2.84375 2.65625 -4.40625 C 1.894531 -5.96875 1.515625 -7.832031 1.515625 -10 C 1.515625 -12.101562 1.898438 -13.96875 2.671875 -15.59375 C 3.453125 -17.226562 4.535156 -18.492188 5.921875 -19.390625 C 7.316406 -20.296875 8.894531 -20.75 10.65625 -20.75 Z M 10.546875 -20.234375 C 9.316406 -20.234375 8.238281 -19.804688 7.3125 -18.953125 C 6.382812 -18.097656 5.664062 -16.90625 5.15625 -15.375 C 4.644531 -13.84375 4.390625 -12.085938 4.390625 -10.109375 C 4.390625 -8.117188 4.671875 -6.367188 5.234375 -4.859375 C 5.804688 -3.347656 6.570312 -2.175781 7.53125 -1.34375 C 8.488281 -0.519531 9.5625 -0.109375 10.75 -0.109375 C 11.96875 -0.109375 13.039062 -0.535156 13.96875 -1.390625 C 14.90625 -2.242188 15.625 -3.4375 16.125 -4.96875 C 16.632812 -6.5 16.890625 -8.253906 16.890625 -10.234375 C 16.890625 -12.222656 16.609375 -13.972656 16.046875 -15.484375 C 15.484375 -17.003906 14.722656 -18.175781 13.765625 -19 C 12.804688 -19.820312 11.734375 -20.234375 10.546875 -20.234375 Z M 10.546875 -20.234375 "/></g></g></g><g fill="#96695e" fill-opacity="1"><g transform="translate(100.778088, 218.046144)"><g><path d="M 23.828125 -19.765625 C 23.128906 -19.734375 22.625 -19.65625 22.3125 -19.53125 C 22 -19.414062 21.785156 -19.195312 21.671875 -18.875 C 21.554688 -18.550781 21.5 -18.023438 21.5 -17.296875 L 21.5 -3.046875 C 21.5 -2.316406 21.554688 -1.789062 21.671875 -1.46875 C 21.785156 -1.144531 22 -0.921875 22.3125 -0.796875 C 22.625 -0.679688 23.128906 -0.609375 23.828125 -0.578125 L 23.828125 0 C 22.941406 -0.0625 21.722656 -0.09375 20.171875 -0.09375 C 18.523438 -0.09375 17.300781 -0.0625 16.5 0 L 16.5 -0.578125 C 17.1875 -0.609375 17.6875 -0.679688 18 -0.796875 C 18.3125 -0.921875 18.523438 -1.144531 18.640625 -1.46875 C 18.765625 -1.789062 18.828125 -2.316406 18.828125 -3.046875 L 18.828125 -18.453125 L 11.890625 0.140625 L 11.4375 0.140625 L 4.1875 -18.5 L 4.1875 -3.328125 C 4.1875 -2.585938 4.25 -2.035156 4.375 -1.671875 C 4.5 -1.304688 4.742188 -1.039062 5.109375 -0.875 C 5.472656 -0.707031 6.039062 -0.609375 6.8125 -0.578125 L 6.8125 0 C 6.125 -0.0625 5.144531 -0.09375 3.875 -0.09375 C 2.726562 -0.09375 1.835938 -0.0625 1.203125 0 L 1.203125 -0.578125 C 1.878906 -0.609375 2.378906 -0.707031 2.703125 -0.875 C 3.023438 -1.039062 3.242188 -1.304688 3.359375 -1.671875 C 3.472656 -2.046875 3.53125 -2.597656 3.53125 -3.328125 L 3.53125 -17.296875 C 3.53125 -18.023438 3.472656 -18.550781 3.359375 -18.875 C 3.242188 -19.195312 3.023438 -19.414062 2.703125 -19.53125 C 2.390625 -19.65625 1.890625 -19.734375 1.203125 -19.765625 L 1.203125 -20.34375 C 1.835938 -20.28125 2.726562 -20.25 3.875 -20.25 C 4.875 -20.25 5.691406 -20.28125 6.328125 -20.34375 L 12.640625 -3.703125 L 18.828125 -20.25 L 20.171875 -20.25 C 21.722656 -20.25 22.941406 -20.28125 23.828125 -20.34375 Z M 23.828125 -19.765625 "/></g></g></g><g fill="#96695e" fill-opacity="1"><g transform="translate(127.881612, 218.046144)"><g><path d="M 14.734375 -20.25 C 15.597656 -20.25 16.316406 -20.28125 16.890625 -20.34375 L 16.890625 -19.765625 C 16.515625 -19.671875 16.144531 -19.425781 15.78125 -19.03125 C 15.414062 -18.644531 15.019531 -18.039062 14.59375 -17.21875 L 10.078125 -8.28125 L 10.078125 -3.046875 C 10.078125 -2.316406 10.132812 -1.789062 10.25 -1.46875 C 10.375 -1.144531 10.59375 -0.921875 10.90625 -0.796875 C 11.21875 -0.679688 11.71875 -0.609375 12.40625 -0.578125 L 12.40625 0 C 11.53125 -0.0625 10.316406 -0.09375 8.765625 -0.09375 C 7.117188 -0.09375 5.894531 -0.0625 5.09375 0 L 5.09375 -0.578125 C 5.78125 -0.609375 6.28125 -0.679688 6.59375 -0.796875 C 6.90625 -0.921875 7.117188 -1.144531 7.234375 -1.46875 C 7.347656 -1.789062 7.40625 -2.316406 7.40625 -3.046875 L 7.40625 -7.359375 L 1.578125 -18.125 C 1.234375 -18.757812 0.929688 -19.1875 0.671875 -19.40625 C 0.410156 -19.625 0.15625 -19.734375 -0.09375 -19.734375 L -0.09375 -20.34375 C 0.65625 -20.28125 1.5 -20.25 2.4375 -20.25 C 4.300781 -20.25 5.644531 -20.28125 6.46875 -20.34375 L 6.46875 -19.734375 C 5.125 -19.734375 4.453125 -19.375 4.453125 -18.65625 C 4.453125 -18.363281 4.546875 -18.023438 4.734375 -17.640625 L 9.515625 -8.484375 L 13.1875 -15.78125 C 13.707031 -16.789062 13.96875 -17.613281 13.96875 -18.25 C 13.96875 -18.78125 13.753906 -19.160156 13.328125 -19.390625 C 12.910156 -19.617188 12.28125 -19.742188 11.4375 -19.765625 L 11.4375 -20.34375 C 12.53125 -20.28125 13.628906 -20.25 14.734375 -20.25 Z M 14.734375 -20.25 "/></g></g></g><g fill="#96695e" fill-opacity="1"><g transform="translate(146.928218, 218.046144)"><g/></g></g><g fill="#96695e" fill-opacity="1"><g transform="translate(156.15434, 218.046144)"><g/></g></g><g fill="#96695e" fill-opacity="1"><g transform="translate(165.380461, 218.046144)"><g/></g></g><g fill="#96695e" fill-opacity="1"><g transform="translate(174.606582, 218.046144)"><g/></g></g><g fill="#96695e" fill-opacity="1"><g transform="translate(183.832704, 218.046144)"><g/></g></g><g fill="#96695e" fill-opacity="1"><g transform="translate(193.053688, 218.046144)"><g><path d="M 20.546875 -19.765625 C 19.859375 -19.734375 19.351562 -19.65625 19.03125 -19.53125 C 18.71875 -19.414062 18.503906 -19.195312 18.390625 -18.875 C 18.273438 -18.550781 18.21875 -18.023438 18.21875 -17.296875 L 18.21875 -3.046875 C 18.21875 -2.316406 18.273438 -1.789062 18.390625 -1.46875 C 18.503906 -1.144531 18.71875 -0.921875 19.03125 -0.796875 C 19.351562 -0.679688 19.859375 -0.609375 20.546875 -0.578125 L 20.546875 0 C 19.742188 -0.0625 18.515625 -0.09375 16.859375 -0.09375 C 15.316406 -0.09375 14.101562 -0.0625 13.21875 0 L 13.21875 -0.578125 C 13.90625 -0.609375 14.40625 -0.679688 14.71875 -0.796875 C 15.039062 -0.921875 15.257812 -1.144531 15.375 -1.46875 C 15.488281 -1.789062 15.546875 -2.316406 15.546875 -3.046875 L 15.546875 -9.9375 L 6.203125 -9.9375 L 6.203125 -3.046875 C 6.203125 -2.316406 6.257812 -1.789062 6.375 -1.46875 C 6.488281 -1.144531 6.703125 -0.921875 7.015625 -0.796875 C 7.335938 -0.679688 7.84375 -0.609375 8.53125 -0.578125 L 8.53125 0 C 7.65625 -0.0625 6.441406 -0.09375 4.890625 -0.09375 C 3.234375 -0.09375 2.003906 -0.0625 1.203125 0 L 1.203125 -0.578125 C 1.890625 -0.609375 2.390625 -0.679688 2.703125 -0.796875 C 3.023438 -0.921875 3.242188 -1.144531 3.359375 -1.46875 C 3.472656 -1.789062 3.53125 -2.316406 3.53125 -3.046875 L 3.53125 -17.296875 C 3.53125 -18.023438 3.472656 -18.550781 3.359375 -18.875 C 3.242188 -19.195312 3.023438 -19.414062 2.703125 -19.53125 C 2.390625 -19.65625 1.890625 -19.734375 1.203125 -19.765625 L 1.203125 -20.34375 C 2.003906 -20.28125 3.234375 -20.25 4.890625 -20.25 C 6.421875 -20.25 7.632812 -20.28125 8.53125 -20.34375 L 8.53125 -19.765625 C 7.84375 -19.734375 7.335938 -19.65625 7.015625 -19.53125 C 6.703125 -19.414062 6.488281 -19.195312 6.375 -18.875 C 6.257812 -18.550781 6.203125 -18.023438 6.203125 -17.296875 L 6.203125 -10.515625 L 15.546875 -10.515625 L 15.546875 -17.296875 C 15.546875 -18.023438 15.488281 -18.550781 15.375 -18.875 C 15.257812 -19.195312 15.039062 -19.414062 14.71875 -19.53125 C 14.40625 -19.65625 13.90625 -19.734375 13.21875 -19.765625 L 13.21875 -20.34375 C 14.101562 -20.28125 15.316406 -20.25 16.859375 -20.25 C 18.515625 -20.25 19.742188 -20.28125 20.546875 -20.34375 Z M 20.546875 -19.765625 "/></g></g></g><g fill="#96695e" fill-opacity="1"><g transform="translate(216.880648, 218.046144)"><g><path d="M 18.828125 -19.765625 C 18.148438 -19.734375 17.648438 -19.632812 17.328125 -19.46875 C 17.003906 -19.300781 16.785156 -19.03125 16.671875 -18.65625 C 16.554688 -18.289062 16.5 -17.742188 16.5 -17.015625 L 16.5 -8.359375 C 16.5 -6.984375 16.40625 -5.800781 16.21875 -4.8125 C 16.039062 -3.820312 15.738281 -2.972656 15.3125 -2.265625 C 14.832031 -1.441406 14.128906 -0.789062 13.203125 -0.3125 C 12.273438 0.164062 11.226562 0.40625 10.0625 0.40625 C 7.945312 0.40625 6.335938 -0.113281 5.234375 -1.15625 C 4.390625 -1.9375 3.820312 -2.820312 3.53125 -3.8125 C 3.25 -4.8125 3.109375 -6.300781 3.109375 -8.28125 L 3.109375 -17.296875 C 3.109375 -18.023438 3.050781 -18.550781 2.9375 -18.875 C 2.820312 -19.195312 2.601562 -19.414062 2.28125 -19.53125 C 1.96875 -19.65625 1.46875 -19.734375 0.78125 -19.765625 L 0.78125 -20.34375 C 1.582031 -20.28125 2.804688 -20.25 4.453125 -20.25 C 6.003906 -20.25 7.222656 -20.28125 8.109375 -20.34375 L 8.109375 -19.765625 C 7.410156 -19.734375 6.90625 -19.65625 6.59375 -19.53125 C 6.28125 -19.414062 6.066406 -19.195312 5.953125 -18.875 C 5.835938 -18.550781 5.78125 -18.023438 5.78125 -17.296875 L 5.78125 -7.78125 C 5.78125 -6.25 5.882812 -4.972656 6.09375 -3.953125 C 6.300781 -2.941406 6.734375 -2.128906 7.390625 -1.515625 C 8.054688 -0.910156 9.03125 -0.609375 10.3125 -0.609375 C 12.34375 -0.609375 13.769531 -1.257812 14.59375 -2.5625 C 15.414062 -3.863281 15.828125 -5.691406 15.828125 -8.046875 L 15.828125 -17.015625 C 15.828125 -18.046875 15.640625 -18.753906 15.265625 -19.140625 C 14.898438 -19.523438 14.21875 -19.734375 13.21875 -19.765625 L 13.21875 -20.34375 C 13.90625 -20.28125 14.882812 -20.25 16.15625 -20.25 C 17.300781 -20.25 18.191406 -20.28125 18.828125 -20.34375 Z M 18.828125 -19.765625 "/></g></g></g><g fill="#96695e" fill-opacity="1"><g transform="translate(238.551963, 218.046144)"><g><path d="M 10.796875 -20.75 C 11.929688 -20.75 12.863281 -20.585938 13.59375 -20.265625 C 14.320312 -19.953125 15.113281 -19.488281 15.96875 -18.875 C 16.21875 -18.6875 16.410156 -18.59375 16.546875 -18.59375 C 16.910156 -18.59375 17.148438 -19.175781 17.265625 -20.34375 L 17.9375 -20.34375 C 17.851562 -19.09375 17.8125 -16.890625 17.8125 -13.734375 L 17.15625 -13.734375 C 16.976562 -14.753906 16.796875 -15.59375 16.609375 -16.25 C 16.421875 -16.90625 16.125 -17.484375 15.71875 -17.984375 C 15.164062 -18.671875 14.441406 -19.21875 13.546875 -19.625 C 12.660156 -20.03125 11.726562 -20.234375 10.75 -20.234375 C 9.476562 -20.234375 8.363281 -19.820312 7.40625 -19 C 6.457031 -18.175781 5.722656 -17 5.203125 -15.46875 C 4.679688 -13.945312 4.421875 -12.171875 4.421875 -10.140625 C 4.421875 -6.691406 4.972656 -4.164062 6.078125 -2.5625 C 7.179688 -0.96875 8.910156 -0.171875 11.265625 -0.171875 C 12.410156 -0.171875 13.40625 -0.46875 14.25 -1.0625 C 14.59375 -1.289062 14.816406 -1.515625 14.921875 -1.734375 C 15.023438 -1.953125 15.078125 -2.253906 15.078125 -2.640625 L 15.078125 -5.40625 C 15.078125 -6.207031 15 -6.789062 14.84375 -7.15625 C 14.695312 -7.519531 14.429688 -7.769531 14.046875 -7.90625 C 13.660156 -8.039062 13.039062 -8.125 12.1875 -8.15625 L 12.1875 -8.734375 C 13.175781 -8.679688 14.523438 -8.65625 16.234375 -8.65625 C 17.535156 -8.65625 18.53125 -8.679688 19.21875 -8.734375 L 19.21875 -8.15625 C 18.78125 -8.125 18.457031 -8.050781 18.25 -7.9375 C 18.050781 -7.820312 17.921875 -7.597656 17.859375 -7.265625 C 17.796875 -6.941406 17.765625 -6.414062 17.765625 -5.6875 L 17.765625 0 L 17.1875 0 C 17.164062 -0.382812 17.085938 -0.753906 16.953125 -1.109375 C 16.816406 -1.460938 16.632812 -1.640625 16.40625 -1.640625 C 16.289062 -1.640625 16.175781 -1.609375 16.0625 -1.546875 C 15.945312 -1.492188 15.742188 -1.363281 15.453125 -1.15625 C 14.785156 -0.632812 14.09375 -0.242188 13.375 0.015625 C 12.65625 0.273438 11.851562 0.40625 10.96875 0.40625 C 9 0.40625 7.3125 0 5.90625 -0.8125 C 4.5 -1.632812 3.421875 -2.8125 2.671875 -4.34375 C 1.921875 -5.875 1.546875 -7.703125 1.546875 -9.828125 C 1.546875 -12.015625 1.941406 -13.9375 2.734375 -15.59375 C 3.535156 -17.25 4.632812 -18.519531 6.03125 -19.40625 C 7.425781 -20.300781 9.015625 -20.75 10.796875 -20.75 Z M 10.796875 -20.75 "/></g></g></g><g fill="#96695e" fill-opacity="1"><g transform="translate(260.826855, 218.046144)"><g><path d="M 15.921875 -3.671875 C 15.921875 -2.585938 15.988281 -1.363281 16.125 0 C 14.820312 -0.0625 12.628906 -0.09375 9.546875 -0.09375 C 5.859375 -0.09375 3.078125 -0.0625 1.203125 0 L 1.203125 -0.578125 C 1.890625 -0.609375 2.390625 -0.679688 2.703125 -0.796875 C 3.023438 -0.921875 3.242188 -1.144531 3.359375 -1.46875 C 3.472656 -1.789062 3.53125 -2.316406 3.53125 -3.046875 L 3.53125 -17.296875 C 3.53125 -18.023438 3.472656 -18.550781 3.359375 -18.875 C 3.242188 -19.195312 3.023438 -19.414062 2.703125 -19.53125 C 2.390625 -19.65625 1.890625 -19.734375 1.203125 -19.765625 L 1.203125 -20.34375 C 3.078125 -20.28125 5.859375 -20.25 9.546875 -20.25 C 12.359375 -20.25 14.359375 -20.28125 15.546875 -20.34375 C 15.410156 -19.082031 15.34375 -17.953125 15.34375 -16.953125 C 15.34375 -16.203125 15.375 -15.609375 15.4375 -15.171875 L 14.765625 -15.171875 C 14.628906 -16.421875 14.457031 -17.34375 14.25 -17.9375 C 14.039062 -18.539062 13.6875 -18.984375 13.1875 -19.265625 C 12.6875 -19.546875 11.929688 -19.6875 10.921875 -19.6875 L 8.53125 -19.6875 C 7.84375 -19.6875 7.335938 -19.628906 7.015625 -19.515625 C 6.703125 -19.410156 6.488281 -19.195312 6.375 -18.875 C 6.257812 -18.550781 6.203125 -18.023438 6.203125 -17.296875 L 6.203125 -10.515625 L 8.109375 -10.515625 C 8.773438 -10.515625 9.289062 -10.671875 9.65625 -10.984375 C 10.019531 -11.304688 10.265625 -11.679688 10.390625 -12.109375 C 10.515625 -12.546875 10.613281 -13.085938 10.6875 -13.734375 L 10.78125 -14.3125 L 11.4375 -14.3125 C 11.375 -13.507812 11.34375 -12.609375 11.34375 -11.609375 L 11.34375 -10.234375 C 11.34375 -9.253906 11.398438 -7.894531 11.515625 -6.15625 L 10.859375 -6.15625 C 10.835938 -6.28125 10.78125 -6.738281 10.6875 -7.53125 C 10.59375 -8.332031 10.328125 -8.929688 9.890625 -9.328125 C 9.460938 -9.734375 8.867188 -9.9375 8.109375 -9.9375 L 6.203125 -9.9375 L 6.203125 -3.046875 C 6.203125 -2.316406 6.257812 -1.789062 6.375 -1.46875 C 6.488281 -1.144531 6.703125 -0.925781 7.015625 -0.8125 C 7.335938 -0.707031 7.84375 -0.65625 8.53125 -0.65625 L 10.625 -0.65625 C 11.8125 -0.65625 12.71875 -0.8125 13.34375 -1.125 C 13.96875 -1.445312 14.421875 -1.957031 14.703125 -2.65625 C 14.992188 -3.351562 15.207031 -4.382812 15.34375 -5.75 L 16 -5.75 C 15.945312 -5.226562 15.921875 -4.535156 15.921875 -3.671875 Z M 15.921875 -3.671875 "/></g></g></g><g fill="#96695e" fill-opacity="1"><g transform="translate(280.400015, 218.046144)"><g><path d="M 19.25 -19.765625 C 18.582031 -19.734375 18.082031 -19.632812 17.75 -19.46875 C 17.425781 -19.300781 17.207031 -19.03125 17.09375 -18.65625 C 16.976562 -18.289062 16.921875 -17.742188 16.921875 -17.015625 L 16.921875 0.140625 L 16.265625 0.140625 L 4.1875 -18.5 L 4.1875 -3.328125 C 4.1875 -2.585938 4.25 -2.035156 4.375 -1.671875 C 4.5 -1.304688 4.742188 -1.039062 5.109375 -0.875 C 5.472656 -0.707031 6.039062 -0.609375 6.8125 -0.578125 L 6.8125 0 C 6.125 -0.0625 5.144531 -0.09375 3.875 -0.09375 C 2.726562 -0.09375 1.835938 -0.0625 1.203125 0 L 1.203125 -0.578125 C 1.878906 -0.609375 2.378906 -0.707031 2.703125 -0.875 C 3.023438 -1.039062 3.242188 -1.304688 3.359375 -1.671875 C 3.472656 -2.046875 3.53125 -2.597656 3.53125 -3.328125 L 3.53125 -17.296875 C 3.53125 -18.023438 3.472656 -18.550781 3.359375 -18.875 C 3.242188 -19.195312 3.023438 -19.414062 2.703125 -19.53125 C 2.390625 -19.65625 1.890625 -19.734375 1.203125 -19.765625 L 1.203125 -20.34375 C 1.835938 -20.28125 2.726562 -20.25 3.875 -20.25 C 4.738281 -20.25 5.488281 -20.28125 6.125 -20.34375 L 16.265625 -4.71875 L 16.265625 -17.015625 C 16.265625 -17.753906 16.203125 -18.304688 16.078125 -18.671875 C 15.953125 -19.035156 15.707031 -19.300781 15.34375 -19.46875 C 14.976562 -19.632812 14.414062 -19.734375 13.65625 -19.765625 L 13.65625 -20.34375 C 14.34375 -20.28125 15.316406 -20.25 16.578125 -20.25 C 17.722656 -20.25 18.613281 -20.28125 19.25 -20.34375 Z M 19.25 -19.765625 "/></g></g></g><g fill="#96695e" fill-opacity="1"><g transform="translate(302.761135, 218.046144)"><g><path d="M 7.359375 -20.65625 C 8.203125 -20.65625 8.863281 -20.5625 9.34375 -20.375 C 9.832031 -20.195312 10.335938 -19.9375 10.859375 -19.59375 C 11.285156 -19.320312 11.613281 -19.1875 11.84375 -19.1875 C 12.007812 -19.1875 12.140625 -19.285156 12.234375 -19.484375 C 12.335938 -19.691406 12.414062 -20.015625 12.46875 -20.453125 L 13.125 -20.453125 C 13.03125 -19.347656 12.984375 -17.394531 12.984375 -14.59375 L 12.328125 -14.59375 C 12.210938 -16.144531 11.765625 -17.453125 10.984375 -18.515625 C 10.210938 -19.578125 9.085938 -20.109375 7.609375 -20.109375 C 6.578125 -20.109375 5.734375 -19.796875 5.078125 -19.171875 C 4.429688 -18.554688 4.109375 -17.757812 4.109375 -16.78125 C 4.109375 -16.050781 4.273438 -15.414062 4.609375 -14.875 C 4.941406 -14.34375 5.367188 -13.882812 5.890625 -13.5 C 6.410156 -13.125 7.148438 -12.640625 8.109375 -12.046875 L 8.9375 -11.515625 C 10.144531 -10.773438 11.097656 -10.117188 11.796875 -9.546875 C 12.492188 -8.984375 13.050781 -8.335938 13.46875 -7.609375 C 13.894531 -6.878906 14.109375 -6.03125 14.109375 -5.0625 C 14.109375 -3.3125 13.53125 -1.960938 12.375 -1.015625 C 11.226562 -0.0664062 9.773438 0.40625 8.015625 0.40625 C 7.097656 0.40625 6.347656 0.304688 5.765625 0.109375 C 5.179688 -0.078125 4.617188 -0.332031 4.078125 -0.65625 C 3.660156 -0.925781 3.335938 -1.0625 3.109375 -1.0625 C 2.929688 -1.0625 2.796875 -0.957031 2.703125 -0.75 C 2.609375 -0.550781 2.53125 -0.234375 2.46875 0.203125 L 1.8125 0.203125 C 1.882812 -0.847656 1.921875 -3.144531 1.921875 -6.6875 L 2.59375 -6.6875 C 2.71875 -4.757812 3.191406 -3.191406 4.015625 -1.984375 C 4.847656 -0.773438 6.113281 -0.171875 7.8125 -0.171875 C 8.851562 -0.171875 9.734375 -0.488281 10.453125 -1.125 C 11.179688 -1.769531 11.546875 -2.726562 11.546875 -4 C 11.546875 -5.070312 11.1875 -5.976562 10.46875 -6.71875 C 9.75 -7.46875 8.613281 -8.3125 7.0625 -9.25 C 5.9375 -9.9375 5.023438 -10.546875 4.328125 -11.078125 C 3.628906 -11.617188 3.054688 -12.269531 2.609375 -13.03125 C 2.171875 -13.789062 1.953125 -14.675781 1.953125 -15.6875 C 1.953125 -17.300781 2.46875 -18.53125 3.5 -19.375 C 4.539062 -20.226562 5.828125 -20.65625 7.359375 -20.65625 Z M 7.359375 -20.65625 "/></g></g></g><g fill="#000000" fill-opacity="1"><g transform="translate(122.325641, 237.986762)"><g><path d="M 1.375 -0.90625 C 0.71875 -1.550781 0.390625 -2.367188 0.390625 -3.359375 C 0.390625 -4.359375 0.71875 -5.179688 1.375 -5.828125 C 2.039062 -6.472656 2.851562 -6.796875 3.8125 -6.796875 C 4.5 -6.796875 5.109375 -6.640625 5.640625 -6.328125 C 6.179688 -6.015625 6.585938 -5.5625 6.859375 -4.96875 L 6.03125 -4.96875 C 5.820312 -5.363281 5.519531 -5.664062 5.125 -5.875 C 4.738281 -6.09375 4.300781 -6.203125 3.8125 -6.203125 C 3.019531 -6.203125 2.367188 -5.941406 1.859375 -5.421875 C 1.347656 -4.898438 1.09375 -4.210938 1.09375 -3.359375 C 1.09375 -2.515625 1.347656 -1.832031 1.859375 -1.3125 C 2.367188 -0.789062 3.015625 -0.53125 3.796875 -0.53125 C 4.578125 -0.53125 5.207031 -0.753906 5.6875 -1.203125 C 6.164062 -1.660156 6.441406 -2.285156 6.515625 -3.078125 L 3.484375 -3.078125 L 3.484375 -3.625 L 7.21875 -3.625 L 7.21875 -3.078125 C 7.132812 -2.140625 6.769531 -1.378906 6.125 -0.796875 C 5.488281 -0.222656 4.703125 0.0625 3.765625 0.0625 C 2.835938 0.0625 2.039062 -0.257812 1.375 -0.90625 Z M 1.375 -0.90625 "/></g></g></g><g fill="#000000" fill-opacity="1"><g transform="translate(131.493006, 237.986762)"><g><path d="M 0.734375 -2.265625 L 0.734375 -6.734375 L 1.40625 -6.734375 L 1.40625 -2.265625 C 1.40625 -1.660156 1.566406 -1.210938 1.890625 -0.921875 C 2.210938 -0.640625 2.65625 -0.5 3.21875 -0.5 C 3.78125 -0.5 4.21875 -0.640625 4.53125 -0.921875 C 4.851562 -1.210938 5.015625 -1.660156 5.015625 -2.265625 L 5.015625 -6.734375 L 5.6875 -6.734375 L 5.6875 -2.265625 C 5.6875 -1.492188 5.457031 -0.910156 5 -0.515625 C 4.539062 -0.128906 3.945312 0.0625 3.21875 0.0625 C 2.488281 0.0625 1.890625 -0.128906 1.421875 -0.515625 C 0.960938 -0.910156 0.734375 -1.492188 0.734375 -2.265625 Z M 0.734375 -2.265625 "/></g></g></g><g fill="#000000" fill-opacity="1"><g transform="translate(139.470564, 237.986762)"><g><path d="M 0.484375 -6.171875 L 0.484375 -6.734375 L 4.6875 -6.734375 L 4.6875 -6.171875 L 2.921875 -6.171875 L 2.921875 0 L 2.25 0 L 2.25 -6.171875 Z M 0.484375 -6.171875 "/></g></g></g><g fill="#000000" fill-opacity="1"><g transform="translate(146.190053, 237.986762)"><g/></g></g><g fill="#000000" fill-opacity="1"><g transform="translate(150.676215, 237.986762)"><g><path d="M 5.015625 -6.734375 L 5.703125 -6.734375 L 5.703125 0 L 5.015625 0 L 5.015625 -3.109375 L 1.40625 -3.109375 L 1.40625 0 L 0.734375 0 L 0.734375 -6.734375 L 1.40625 -6.734375 L 1.40625 -3.65625 L 5.015625 -3.65625 Z M 5.015625 -6.734375 "/></g></g></g><g fill="#000000" fill-opacity="1"><g transform="translate(158.673278, 237.986762)"><g><path d="M 4.15625 -6.734375 L 4.15625 -6.171875 L 1.40625 -6.171875 L 1.40625 -3.65625 L 3.859375 -3.65625 L 3.859375 -3.109375 L 1.40625 -3.109375 L 1.40625 -0.546875 L 4.15625 -0.546875 L 4.15625 0 L 0.734375 0 L 0.734375 -6.734375 Z M 4.15625 -6.734375 "/></g></g></g><g fill="#000000" fill-opacity="1"><g transform="translate(164.983161, 237.986762)"><g><path d="M 5.484375 0 L 4.90625 -1.5625 L 1.78125 -1.5625 L 1.203125 0 L 0.515625 0 L 3 -6.734375 L 3.6875 -6.734375 L 6.15625 0 Z M 1.96875 -2.109375 L 4.703125 -2.109375 L 3.34375 -5.875 Z M 1.96875 -2.109375 "/></g></g></g><g fill="#000000" fill-opacity="1"><g transform="translate(173.22404, 237.986762)"><g><path d="M 0.734375 -6.734375 L 1.40625 -6.734375 L 1.40625 -0.53125 L 3.859375 -0.53125 L 3.859375 0 L 0.734375 0 Z M 0.734375 -6.734375 "/></g></g></g><g fill="#000000" fill-opacity="1"><g transform="translate(178.841494, 237.986762)"><g><path d="M 0.484375 -6.171875 L 0.484375 -6.734375 L 4.6875 -6.734375 L 4.6875 -6.171875 L 2.921875 -6.171875 L 2.921875 0 L 2.25 0 L 2.25 -6.171875 Z M 0.484375 -6.171875 "/></g></g></g><g fill="#000000" fill-opacity="1"><g transform="translate(185.560981, 237.986762)"><g><path d="M 5.015625 -6.734375 L 5.703125 -6.734375 L 5.703125 0 L 5.015625 0 L 5.015625 -3.109375 L 1.40625 -3.109375 L 1.40625 0 L 0.734375 0 L 0.734375 -6.734375 L 1.40625 -6.734375 L 1.40625 -3.65625 L 5.015625 -3.65625 Z M 5.015625 -6.734375 "/></g></g></g><g fill="#000000" fill-opacity="1"><g transform="translate(193.558044, 237.986762)"><g/></g></g><g fill="#000000" fill-opacity="1"><g transform="translate(198.044205, 237.986762)"><g><path d="M 1.375 -0.90625 C 0.71875 -1.550781 0.390625 -2.367188 0.390625 -3.359375 C 0.390625 -4.359375 0.71875 -5.179688 1.375 -5.828125 C 2.039062 -6.472656 2.851562 -6.796875 3.8125 -6.796875 C 4.5 -6.796875 5.109375 -6.640625 5.640625 -6.328125 C 6.179688 -6.015625 6.585938 -5.5625 6.859375 -4.96875 L 6.03125 -4.96875 C 5.820312 -5.363281 5.519531 -5.664062 5.125 -5.875 C 4.738281 -6.09375 4.300781 -6.203125 3.8125 -6.203125 C 3.019531 -6.203125 2.367188 -5.941406 1.859375 -5.421875 C 1.347656 -4.898438 1.09375 -4.210938 1.09375 -3.359375 C 1.09375 -2.515625 1.347656 -1.832031 1.859375 -1.3125 C 2.367188 -0.789062 3.019531 -0.53125 3.8125 -0.53125 C 4.300781 -0.53125 4.738281 -0.640625 5.125 -0.859375 C 5.519531 -1.078125 5.820312 -1.382812 6.03125 -1.78125 L 6.859375 -1.78125 C 6.585938 -1.175781 6.179688 -0.71875 5.640625 -0.40625 C 5.109375 -0.09375 4.5 0.0625 3.8125 0.0625 C 2.851562 0.0625 2.039062 -0.257812 1.375 -0.90625 Z M 1.375 -0.90625 "/></g></g></g><g fill="#000000" fill-opacity="1"><g transform="translate(207.211569, 237.986762)"><g><path d="M 5.75 -1.296875 C 6.269531 -1.828125 6.53125 -2.515625 6.53125 -3.359375 C 6.53125 -4.210938 6.269531 -4.898438 5.75 -5.421875 C 5.238281 -5.941406 4.585938 -6.203125 3.796875 -6.203125 C 3.015625 -6.203125 2.363281 -5.941406 1.84375 -5.421875 C 1.332031 -4.898438 1.078125 -4.210938 1.078125 -3.359375 C 1.078125 -2.515625 1.332031 -1.828125 1.84375 -1.296875 C 2.363281 -0.773438 3.015625 -0.515625 3.796875 -0.515625 C 4.585938 -0.515625 5.238281 -0.773438 5.75 -1.296875 Z M 1.375 -0.90625 C 0.71875 -1.550781 0.390625 -2.367188 0.390625 -3.359375 C 0.390625 -4.359375 0.71875 -5.179688 1.375 -5.828125 C 2.039062 -6.472656 2.851562 -6.796875 3.8125 -6.796875 C 4.78125 -6.796875 5.59375 -6.472656 6.25 -5.828125 C 6.90625 -5.179688 7.234375 -4.359375 7.234375 -3.359375 C 7.234375 -2.367188 6.90625 -1.550781 6.25 -0.90625 C 5.59375 -0.257812 4.78125 0.0625 3.8125 0.0625 C 2.851562 0.0625 2.039062 -0.257812 1.375 -0.90625 Z M 1.375 -0.90625 "/></g></g></g><g fill="#000000" fill-opacity="1"><g transform="translate(216.388686, 237.986762)"><g><path d="M 5.484375 0 L 4.90625 -1.5625 L 1.78125 -1.5625 L 1.203125 0 L 0.515625 0 L 3 -6.734375 L 3.6875 -6.734375 L 6.15625 0 Z M 1.96875 -2.109375 L 4.703125 -2.109375 L 3.34375 -5.875 Z M 1.96875 -2.109375 "/></g></g></g><g fill="#000000" fill-opacity="1"><g transform="translate(224.629565, 237.986762)"><g><path d="M 1.375 -0.90625 C 0.71875 -1.550781 0.390625 -2.367188 0.390625 -3.359375 C 0.390625 -4.359375 0.71875 -5.179688 1.375 -5.828125 C 2.039062 -6.472656 2.851562 -6.796875 3.8125 -6.796875 C 4.5 -6.796875 5.109375 -6.640625 5.640625 -6.328125 C 6.179688 -6.015625 6.585938 -5.5625 6.859375 -4.96875 L 6.03125 -4.96875 C 5.820312 -5.363281 5.519531 -5.664062 5.125 -5.875 C 4.738281 -6.09375 4.300781 -6.203125 3.8125 -6.203125 C 3.019531 -6.203125 2.367188 -5.941406 1.859375 -5.421875 C 1.347656 -4.898438 1.09375 -4.210938 1.09375 -3.359375 C 1.09375 -2.515625 1.347656 -1.832031 1.859375 -1.3125 C 2.367188 -0.789062 3.019531 -0.53125 3.8125 -0.53125 C 4.300781 -0.53125 4.738281 -0.640625 5.125 -0.859375 C 5.519531 -1.078125 5.820312 -1.382812 6.03125 -1.78125 L 6.859375 -1.78125 C 6.585938 -1.175781 6.179688 -0.71875 5.640625 -0.40625 C 5.109375 -0.09375 4.5 0.0625 3.8125 0.0625 C 2.851562 0.0625 2.039062 -0.257812 1.375 -0.90625 Z M 1.375 -0.90625 "/></g></g></g><g fill="#000000" fill-opacity="1"><g transform="translate(233.796929, 237.986762)"><g><path d="M 5.015625 -6.734375 L 5.703125 -6.734375 L 5.703125 0 L 5.015625 0 L 5.015625 -3.109375 L 1.40625 -3.109375 L 1.40625 0 L 0.734375 0 L 0.734375 -6.734375 L 1.40625 -6.734375 L 1.40625 -3.65625 L 5.015625 -3.65625 Z M 5.015625 -6.734375 "/></g></g></g><g fill="#000000" fill-opacity="1"><g transform="translate(241.787934, 237.986762)"><g/></g></g></svg>