<svg version="1.2" xmlns="http://www.w3.org/2000/svg" viewBox="0 0 264 53" width="259" height="52">
	<title>romyhugens (1)-svg</title>
	<defs>
		<clipPath clipPathUnits="userSpaceOnUse" id="cp1">
			<path d="m118 2.79h5.55v28.48h-5.55z"/>
		</clipPath>
		<clipPath clipPathUnits="userSpaceOnUse" id="cp2">
			<path d="m96.27 2.79h5.73v28.48h-5.73z"/>
		</clipPath>
	</defs>
	<style>
		.s0 { fill: #cb8e7e } 
		.s1 { fill: #000000 } 
	</style>
	<g id="Clip-Path" clip-path="url(#cp1)">
		<g id="Layer">
			<path id="Layer" class="s0" d="m119.8 17c-2.1-4.4-2-9.5 0.2-13.9 0.2-0.3 0.5-0.4 0.8-0.3 0.3 0.2 0.4 0.5 0.3 0.8-2.1 4.1-2.2 8.8-0.2 12.9 2 4.5 3 9.4 2.6 14.2-0.1 0.4-0.4 0.6-0.7 0.6-0.3-0.1-0.6-0.3-0.5-0.7 0.3-4.6-0.5-9.3-2.5-13.6z"/>
		</g>
	</g>
	<g id="Clip-Path" clip-path="url(#cp2)">
		<g id="Layer">
			<path id="Layer" class="s0" d="m100.1 17c-2 4.3-2.9 9-2.5 13.6 0 0.4-0.3 0.6-0.6 0.7-0.3 0-0.6-0.2-0.6-0.6-0.4-4.8 0.5-9.7 2.6-14.2 1.9-4.1 1.8-8.8-0.3-12.9-0.1-0.3 0-0.6 0.3-0.8 0.3-0.1 0.7 0 0.8 0.3 2.3 4.4 2.4 9.5 0.3 13.9z"/>
		</g>
	</g>
	<path id="Layer" class="s0" d="m110.5 19.4c0 0.3-0.3 0.6-0.6 0.6-0.3 0-0.6-0.3-0.6-0.6v-1.2c0-0.3 0.3-0.6 0.6-0.6 0.3 0 0.6 0.3 0.6 0.6z"/>
	<g id="Layer">
		<g id="Layer">
			<g id="Layer">
				<path id="Layer" fill-rule="evenodd" class="s1" d="m20 27.7q-0.7 1-1.3 1.4-0.7 0.4-1.8 0.4-1.2 0-1.9-0.7-0.8-0.7-1.2-2.4l-0.6-2.9q-0.3-1.4-0.7-2.2-0.3-0.8-0.9-1.3-0.6-0.5-1.7-0.5h-2.7v6.6q0 1.1 0.2 1.6 0.2 0.4 0.6 0.6 0.5 0.2 1.5 0.2v0.6q-1.3-0.1-3.6-0.1-2.5 0-3.7 0.1v-0.6q1 0 1.5-0.2 0.5-0.2 0.7-0.6 0.1-0.5 0.1-1.6v-14.3q0-1.1-0.1-1.5-0.2-0.5-0.7-0.7-0.5-0.2-1.5-0.2v-0.6q1.2 0.1 3.5 0.1l3.1-0.1q0.6 0 1.3 0 3.3 0 5.1 1.4 1.8 1.4 1.8 3.6 0 1.1-0.6 2.3-0.5 1.1-1.7 2-1.3 0.9-3.3 1.2l0.4 0.1q1.8 0.3 2.7 1.1 0.9 0.9 1.3 2.7l0.7 2.9q0.3 1.3 0.6 1.9 0.3 0.5 0.9 0.5 0.4 0 0.8-0.3 0.3-0.2 0.7-0.8zm-10.6-18.4q-0.9 0-1.3 0.3-0.5 0.2-0.7 0.7-0.1 0.5-0.1 1.5v7.1h1.9q2.8 0 3.9-1.3 1.1-1.3 1.1-3.5 0-2.3-1.1-3.5-1.2-1.3-3.7-1.3z"/>
			</g>
		</g>
	</g>
	<g id="Layer">
		<g id="Layer">
			<g id="Layer">
				<path id="Layer" fill-rule="evenodd" class="s1" d="m32.4 8.4q2.7 0 4.7 1.2 2.1 1.2 3.2 3.6 1.2 2.3 1.2 5.6 0 3.1-1.2 5.6-1.2 2.4-3.2 3.8-2.1 1.3-4.8 1.3-2.7 0-4.8-1.2-2-1.2-3.1-3.6-1.2-2.3-1.2-5.6 0-3.1 1.2-5.6 1.1-2.4 3.2-3.8 2.1-1.3 4.8-1.3zm-0.2 0.5q-1.8 0-3.2 1.3-1.4 1.3-2.1 3.6-0.8 2.2-0.8 5.2 0 3 0.8 5.3 0.9 2.2 2.3 3.5 1.5 1.2 3.3 1.2 1.8 0 3.2-1.3 1.4-1.2 2.1-3.5 0.8-2.3 0.8-5.3 0-3-0.9-5.3-0.8-2.2-2.2-3.5-1.5-1.2-3.3-1.2z"/>
			</g>
		</g>
	</g>
	<g id="Layer">
		<g id="Layer">
			<g id="Layer">
				<path id="Layer" class="s1" d="m68.9 9.4q-1.1 0-1.5 0.2-0.5 0.2-0.7 0.7-0.1 0.4-0.1 1.5v14.3q0 1.1 0.1 1.6 0.2 0.4 0.7 0.6 0.4 0.2 1.5 0.2v0.6q-1.3-0.1-3.7-0.1-2.4 0-3.6 0.1v-0.6q1 0 1.5-0.2 0.4-0.2 0.6-0.6 0.2-0.5 0.2-1.6v-15.4l-6.9 18.6h-0.5l-7.3-18.7v15.2q0 1.1 0.2 1.7 0.2 0.5 0.8 0.8 0.5 0.2 1.7 0.2v0.6q-1.1-0.1-3-0.1-1.7 0-2.6 0.1v-0.6q1 0 1.5-0.2 0.4-0.3 0.6-0.8 0.2-0.6 0.2-1.7v-14q0-1.1-0.2-1.5-0.2-0.5-0.6-0.7-0.5-0.2-1.5-0.2v-0.6q0.9 0.1 2.6 0.1 1.5 0 2.5-0.1l6.3 16.6 6.2-16.5h1.3q2.4 0 3.7-0.1z"/>
			</g>
		</g>
	</g>
	<g id="Layer">
		<g id="Layer">
			<g id="Layer">
				<path id="Layer" class="s1" d="m86.9 8.9q1.3 0 2.1-0.1v0.6q-0.5 0.1-1.1 0.7-0.5 0.6-1.1 1.8l-4.6 8.9v5.3q0 1.1 0.2 1.6 0.2 0.4 0.7 0.6 0.4 0.2 1.5 0.2v0.6q-1.3-0.1-3.7-0.1-2.4 0-3.6 0.1v-0.6q1 0 1.5-0.2 0.4-0.2 0.6-0.6 0.2-0.5 0.2-1.6v-4.3l-5.9-10.8q-0.5-1-0.9-1.3-0.4-0.3-0.7-0.3v-0.6q1.1 0.1 2.5 0.1 2.8 0 4-0.1v0.6q-2 0-2 1.1 0 0.4 0.3 1l4.8 9.1 3.6-7.3q0.8-1.5 0.8-2.4 0-0.8-0.6-1.2-0.6-0.3-1.9-0.3v-0.6q1.6 0.1 3.3 0.1z"/>
			</g>
		</g>
	</g>
	<g id="Layer">
		<g id="Layer">
			<g id="Layer">
			</g>
		</g>
	</g>
	<g id="Layer">
		<g id="Layer">
			<g id="Layer">
			</g>
		</g>
	</g>
	<g id="Layer">
		<g id="Layer">
			<g id="Layer">
			</g>
		</g>
	</g>
	<g id="Layer">
		<g id="Layer">
			<g id="Layer">
			</g>
		</g>
	</g>
	<g id="Layer">
		<g id="Layer">
			<g id="Layer">
			</g>
		</g>
	</g>
	<g id="Layer">
		<g id="Layer">
			<g id="Layer">
				<path id="Layer" class="s1" d="m157.9 9.4q-1.1 0-1.5 0.2-0.5 0.2-0.7 0.7-0.2 0.4-0.2 1.5v14.3q0 1.1 0.2 1.6 0.2 0.4 0.7 0.6 0.4 0.2 1.5 0.2v0.6q-1.2-0.1-3.7-0.1-2.3 0-3.7 0.1v-0.6q1.1 0 1.5-0.2 0.5-0.2 0.7-0.6 0.2-0.5 0.2-1.6v-6.9h-9.4v6.9q0 1.1 0.2 1.6 0.2 0.4 0.6 0.6 0.5 0.2 1.6 0.2v0.6q-1.4-0.1-3.7-0.1-2.5 0-3.7 0.1v-0.6q1.1 0 1.5-0.2 0.5-0.2 0.7-0.6 0.2-0.5 0.2-1.6v-14.3q0-1.1-0.2-1.5-0.2-0.5-0.7-0.7-0.4-0.2-1.5-0.2v-0.6q1.2 0.1 3.7 0.1 2.3 0 3.7-0.1v0.6q-1.1 0-1.6 0.2-0.4 0.2-0.6 0.7-0.2 0.4-0.2 1.5v6.8h9.4v-6.8q0-1.1-0.2-1.5-0.2-0.5-0.7-0.7-0.4-0.2-1.5-0.2v-0.6q1.4 0.1 3.7 0.1 2.5 0 3.7-0.1z"/>
			</g>
		</g>
	</g>
	<g id="Layer">
		<g id="Layer">
			<g id="Layer">
				<path id="Layer" class="s1" d="m180 9.4q-1 0-1.5 0.3-0.5 0.2-0.7 0.8-0.2 0.5-0.2 1.6v8.7q0 2-0.2 3.5-0.3 1.5-0.9 2.6-0.8 1.2-2.2 1.9-1.3 0.7-3.1 0.7-3.2 0-4.8-1.5-1.3-1.2-1.7-2.7-0.4-1.5-0.4-4.5v-9q0-1.1-0.2-1.5-0.2-0.5-0.7-0.7-0.4-0.2-1.5-0.2v-0.6q1.2 0.1 3.7 0.1 2.3 0 3.7-0.1v0.6q-1.1 0-1.6 0.2-0.4 0.2-0.6 0.7-0.2 0.4-0.2 1.5v9.5q0 2.3 0.3 3.9 0.4 1.5 1.3 2.4 1 0.9 3 0.9 3 0 4.2-1.9 1.3-2 1.3-5.5v-9q0-1.5-0.6-2.1-0.5-0.6-2-0.6v-0.6q1 0.1 2.9 0.1 1.7 0 2.7-0.1z"/>
			</g>
		</g>
	</g>
	<g id="Layer">
		<g id="Layer">
			<g id="Layer">
				<path id="Layer" class="s1" d="m193.6 8.4q1.7 0 2.8 0.5 1.1 0.4 2.4 1.4 0.4 0.2 0.6 0.2 0.5 0 0.7-1.7h0.6q-0.1 1.9-0.1 6.6h-0.6q-0.3-1.5-0.6-2.5-0.3-1-0.9-1.8-0.8-1-2.1-1.6-1.4-0.6-2.8-0.6-1.9 0-3.4 1.2-1.4 1.3-2.2 3.6-0.8 2.2-0.8 5.3 0 5.2 1.7 7.6 1.6 2.4 5.2 2.4 1.7 0 3-0.9 0.5-0.4 0.6-0.7 0.2-0.3 0.2-0.9v-2.8q0-1.2-0.2-1.7-0.3-0.6-0.8-0.8-0.6-0.2-1.9-0.2v-0.6q1.5 0.1 4 0.1 2 0 3-0.1v0.6q-0.6 0-0.9 0.2-0.3 0.2-0.4 0.7-0.1 0.4-0.1 1.5v5.7h-0.6q0-0.5-0.2-1.1-0.2-0.5-0.6-0.5-0.2 0-0.3 0.1-0.2 0.1-0.6 0.4-1 0.8-2.1 1.1-1.1 0.4-2.4 0.4-3 0-5.1-1.2-2.1-1.2-3.2-3.5-1.1-2.3-1.1-5.5 0-3.3 1.1-5.8 1.2-2.5 3.3-3.8 2.1-1.3 4.8-1.3z"/>
			</g>
		</g>
	</g>
	<g id="Layer">
		<g id="Layer">
			<g id="Layer">
				<path id="Layer" class="s1" d="m221 25.5q0 1.6 0.2 3.6-1.9-0.1-6.6-0.1-5.5 0-8.3 0.1v-0.6q1 0 1.5-0.2 0.5-0.2 0.6-0.6 0.2-0.5 0.2-1.6v-14.3q0-1.1-0.2-1.5-0.1-0.5-0.6-0.7-0.5-0.2-1.5-0.2v-0.6q2.8 0.1 8.3 0.1 4.2 0 6-0.1-0.2 1.9-0.2 3.4 0 1.1 0.1 1.8h-0.7q-0.2-1.9-0.5-2.8-0.3-0.9-1-1.3-0.8-0.5-2.3-0.5h-2.4q-1 0-1.5 0.2-0.5 0.2-0.6 0.7-0.2 0.4-0.2 1.5v6.8h1.9q1 0 1.5-0.5 0.6-0.4 0.8-1.1 0.2-0.6 0.3-1.6l0.1-0.6h0.6q-0.1 1.2-0.1 2.7v1.4q0 1.5 0.2 4.1h-0.7q0-0.2-0.1-1.4-0.2-1.2-0.8-1.8-0.7-0.6-1.8-0.6h-1.9v6.9q0 1.1 0.2 1.6 0.1 0.4 0.6 0.6 0.5 0.2 1.5 0.2h2.1q1.8 0 2.7-0.5 1-0.5 1.4-1.5 0.4-1.1 0.6-3.1h0.7q-0.1 0.8-0.1 2.1z"/>
			</g>
		</g>
	</g>
	<g id="Layer">
		<g id="Layer">
			<g id="Layer">
				<path id="Layer" class="s1" d="m243.9 9.4q-1 0-1.5 0.3-0.5 0.2-0.7 0.8-0.1 0.5-0.1 1.6v17.2h-0.7l-12.1-18.7v15.2q0 1.1 0.2 1.7 0.2 0.5 0.8 0.8 0.5 0.2 1.7 0.2v0.6q-1.1-0.1-3-0.1-1.7 0-2.6 0.1v-0.6q1 0 1.5-0.2 0.4-0.3 0.6-0.8 0.2-0.6 0.2-1.7v-14q0-1.1-0.2-1.5-0.2-0.5-0.6-0.7-0.5-0.2-1.5-0.2v-0.6q0.9 0.1 2.6 0.1 1.3 0 2.3-0.1l10.1 15.6v-12.3q0-1.1-0.2-1.6-0.2-0.6-0.7-0.8-0.6-0.3-1.7-0.3v-0.6q1 0.1 2.9 0.1 1.7 0 2.7-0.1z"/>
			</g>
		</g>
	</g>
	<g id="Layer">
		<g id="Layer">
			<g id="Layer">
				<path id="Layer" class="s1" d="m254.4 8.5q1.2 0 1.9 0.3 0.8 0.2 1.6 0.7 0.6 0.4 0.9 0.4 0.3 0 0.4-0.3 0.2-0.3 0.3-0.9h0.6q-0.1 1.6-0.1 5.8h-0.7q-0.1-2.3-1.3-3.9-1.2-1.6-3.4-1.6-1.5 0-2.5 1-1 0.9-1 2.3 0 1.1 0.5 2 0.5 0.7 1.3 1.3 0.8 0.6 2.2 1.5l0.8 0.5q1.9 1.1 2.9 2 1 0.8 1.7 1.9 0.6 1.1 0.6 2.6 0 2.6-1.7 4-1.7 1.4-4.4 1.4-1.4 0-2.2-0.3-0.9-0.2-1.7-0.7-0.6-0.4-1-0.4-0.3 0-0.4 0.3-0.1 0.3-0.2 0.9h-0.7q0.1-1.5 0.1-6.9h0.7q0.2 2.9 1.4 4.7 1.3 1.9 3.8 1.9 1.6 0 2.7-1 1.1-1 1.1-2.9 0-1.6-1.1-2.7-1.1-1.1-3.4-2.5-1.7-1.1-2.8-1.9-1-0.8-1.7-1.9-0.6-1.1-0.6-2.7 0-2.4 1.5-3.6 1.6-1.3 3.9-1.3z"/>
			</g>
		</g>
	</g>
	<g id="Layer">
		<g id="Layer">
			<g id="Layer">
				<path id="Layer" class="s1" d="m50 47.6q-1-0.9-1-2.4 0-1.5 1-2.5 1-1 2.4-1 1 0 1.8 0.5 0.8 0.5 1.2 1.4h-0.8q-0.3-0.6-0.9-0.9-0.6-0.4-1.3-0.4-1.2 0-2 0.8-0.7 0.8-0.7 2.1 0 1.3 0.7 2 0.8 0.8 2 0.8 1.1 0 1.9-0.7 0.7-0.6 0.8-1.8h-3v-0.6h3.7v0.6q-0.1 1.4-1.1 2.2-1 0.9-2.4 0.9-1.3 0-2.3-1z"/>
			</g>
		</g>
	</g>
	<g id="Layer">
		<g id="Layer">
			<g id="Layer">
				<path id="Layer" class="s1" d="m58.5 46.3v-4.5h0.7v4.5q0 0.9 0.4 1.3 0.5 0.4 1.4 0.4 0.8 0 1.3-0.4 0.5-0.4 0.5-1.3v-4.5h0.6v4.5q0 1.1-0.7 1.7-0.6 0.6-1.7 0.6-1.1 0-1.8-0.6-0.7-0.6-0.7-1.7z"/>
			</g>
		</g>
	</g>
	<g id="Layer">
		<g id="Layer">
			<g id="Layer">
				<path id="Layer" class="s1" d="m66.2 42.4v-0.6h4.2v0.6h-1.8v6.1h-0.6v-6.1z"/>
			</g>
		</g>
	</g>
	<g id="Layer">
		<g id="Layer">
			<g id="Layer">
			</g>
		</g>
	</g>
	<g id="Layer">
		<g id="Layer">
			<g id="Layer">
				<path id="Layer" class="s1" d="m81.9 41.8h0.7v6.7h-0.7v-3.1h-3.6v3.1h-0.6v-6.7h0.6v3.1h3.6z"/>
			</g>
		</g>
	</g>
	<g id="Layer">
		<g id="Layer">
			<g id="Layer">
				<path id="Layer" class="s1" d="m89.1 41.8v0.6h-2.8v2.5h2.5v0.5h-2.5v2.6h2.8v0.5h-3.4v-6.7z"/>
			</g>
		</g>
	</g>
	<g id="Layer">
		<g id="Layer">
			<g id="Layer">
				<path id="Layer" fill-rule="evenodd" class="s1" d="m96.7 48.5l-0.6-1.5h-3.1l-0.6 1.5h-0.6l2.4-6.7h0.7l2.5 6.7zm-3.5-2.1h2.7l-1.3-3.7z"/>
			</g>
		</g>
	</g>
	<g id="Layer">
		<g id="Layer">
			<g id="Layer">
				<path id="Layer" class="s1" d="m100.2 41.8h0.7v6.2h2.4v0.5h-3.1z"/>
			</g>
		</g>
	</g>
	<g id="Layer">
		<g id="Layer">
			<g id="Layer">
				<path id="Layer" class="s1" d="m105.6 42.4v-0.6h4.2v0.6h-1.8v6.1h-0.7v-6.1z"/>
			</g>
		</g>
	</g>
	<g id="Layer">
		<g id="Layer">
			<g id="Layer">
				<path id="Layer" class="s1" d="m116.8 41.8h0.7v6.7h-0.7v-3.1h-3.6v3.1h-0.7v-6.7h0.7v3.1h3.6z"/>
			</g>
		</g>
	</g>
	<g id="Layer">
		<g id="Layer">
			<g id="Layer">
			</g>
		</g>
	</g>
	<g id="Layer">
		<g id="Layer">
			<g id="Layer">
				<path id="Layer" class="s1" d="m125.7 47.6q-1-0.9-1-2.4 0-1.5 1-2.5 1-1 2.4-1 1 0 1.8 0.5 0.8 0.5 1.3 1.4h-0.9q-0.3-0.6-0.9-0.9-0.6-0.4-1.3-0.4-1.2 0-1.9 0.8-0.8 0.8-0.8 2.1 0 1.3 0.8 2 0.7 0.8 1.9 0.8 0.7 0 1.3-0.3 0.6-0.3 0.9-0.9h0.9q-0.5 0.9-1.3 1.3-0.8 0.5-1.8 0.5-1.4 0-2.4-1z"/>
			</g>
		</g>
	</g>
	<g id="Layer">
		<g id="Layer">
			<g id="Layer">
				<path id="Layer" fill-rule="evenodd" class="s1" d="m134.8 47.6q-0.9-0.9-0.9-2.4 0-1.5 0.9-2.5 1-1 2.5-1 1.4 0 2.4 1 1 1 1 2.5 0 1.5-1 2.4-1 1-2.4 1-1.5 0-2.5-1zm4.4-0.4q0.8-0.7 0.8-2 0-1.3-0.8-2.1-0.8-0.8-1.9-0.8-1.2 0-2 0.8-0.8 0.8-0.8 2.1 0 1.3 0.8 2 0.8 0.8 2 0.8 1.1 0 1.9-0.8z"/>
			</g>
		</g>
	</g>
	<g id="Layer">
		<g id="Layer">
			<g id="Layer">
				<path id="Layer" fill-rule="evenodd" class="s1" d="m148.1 48.5l-0.6-1.5h-3.1l-0.6 1.5h-0.6l2.4-6.7h0.7l2.5 6.7zm-3.5-2.1h2.7l-1.3-3.7z"/>
			</g>
		</g>
	</g>
	<g id="Layer">
		<g id="Layer">
			<g id="Layer">
				<path id="Layer" class="s1" d="m152.3 47.6q-1-0.9-1-2.4 0-1.5 1-2.5 1-1 2.4-1 1 0 1.8 0.5 0.8 0.5 1.2 1.4h-0.8q-0.3-0.6-0.9-0.9-0.6-0.4-1.3-0.4-1.2 0-2 0.8-0.7 0.8-0.7 2.1 0 1.3 0.7 2 0.8 0.8 2 0.8 0.7 0 1.3-0.3 0.6-0.3 0.9-0.9h0.8q-0.4 0.9-1.2 1.3-0.8 0.5-1.8 0.5-1.4 0-2.4-1z"/>
			</g>
		</g>
	</g>
	<g id="Layer">
		<g id="Layer">
			<g id="Layer">
				<path id="Layer" class="s1" d="m165.1 41.8h0.7v6.7h-0.7v-3.1h-3.6v3.1h-0.7v-6.7h0.7v3.1h3.6z"/>
			</g>
		</g>
	</g>
	<g id="Layer">
		<g id="Layer">
			<g id="Layer">
			</g>
		</g>
	</g>
</svg>