<svg version="1.2" xmlns="http://www.w3.org/2000/svg" viewBox="0 0 265 57" width="265" height="57">
	<title>romyhugens-svg</title>
	<defs>
		<clipPath clipPathUnits="userSpaceOnUse" id="cp1">
			<path d="m122 2.79h5.55v28.48h-5.55z"/>
		</clipPath>
		<clipPath clipPathUnits="userSpaceOnUse" id="cp2">
			<path d="m100.27 2.79h5.73v28.48h-5.73z"/>
		</clipPath>
	</defs>
	<style>
		.s0 { fill: #000000 } 
		.s1 { fill: #96695e } 
	</style>
	<g id="Clip-Path" clip-path="url(#cp1)">
		<g id="Layer">
			<path id="Layer" class="s0" d="m123.8 17c-2.1-4.4-2-9.5 0.2-13.9 0.2-0.3 0.5-0.4 0.8-0.3 0.3 0.2 0.4 0.5 0.3 0.8-2.1 4.1-2.2 8.8-0.2 12.9 2 4.5 3 9.4 2.6 14.2-0.1 0.4-0.4 0.6-0.7 0.6-0.3-0.1-0.6-0.3-0.5-0.7 0.3-4.6-0.5-9.3-2.5-13.6z"/>
		</g>
	</g>
	<g id="Clip-Path" clip-path="url(#cp2)">
		<g id="Layer">
			<path id="Layer" class="s0" d="m104.1 17c-2 4.3-2.9 9-2.5 13.6 0 0.4-0.3 0.6-0.6 0.7-0.3 0-0.6-0.2-0.6-0.6-0.4-4.8 0.5-9.7 2.6-14.2 1.9-4.1 1.8-8.8-0.3-12.9-0.1-0.3 0-0.6 0.3-0.8 0.3-0.1 0.7 0 0.8 0.3 2.3 4.4 2.4 9.5 0.3 13.9z"/>
		</g>
	</g>
	<path id="Layer" class="s0" d="m114.5 19.4c0 0.3-0.3 0.6-0.6 0.6-0.3 0-0.6-0.3-0.6-0.6v-1.2c0-0.3 0.3-0.6 0.6-0.6 0.3 0 0.6 0.3 0.6 0.6z"/>
	<g id="Layer">
		<g id="Layer">
			<g id="Layer">
				<path id="Layer" fill-rule="evenodd" class="s1" d="m19.7 29.6q-0.7 1-1.3 1.4-0.7 0.5-1.8 0.5-1.2 0-1.9-0.7-0.8-0.7-1.2-2.5l-0.6-2.8q-0.3-1.5-0.7-2.3-0.2-0.8-0.9-1.3-0.6-0.5-1.6-0.5h-2.8v6.6q0 1.1 0.2 1.6 0.2 0.5 0.6 0.6 0.5 0.2 1.5 0.3v0.5q-1.3 0-3.6 0-2.5 0-3.7 0v-0.5q1.1-0.1 1.5-0.3 0.5-0.1 0.7-0.6 0.1-0.5 0.1-1.6v-14.3q0-1-0.1-1.5-0.2-0.5-0.7-0.7-0.4-0.2-1.5-0.2v-0.6q1.2 0.1 3.5 0.1h3.1q0.6-0.1 1.3-0.1 3.3 0 5.1 1.4 1.8 1.4 1.8 3.6 0 1.2-0.5 2.3-0.6 1.1-1.8 2-1.3 0.9-3.3 1.2l0.4 0.1q1.9 0.3 2.7 1.2 0.9 0.8 1.3 2.6l0.7 2.9q0.3 1.3 0.6 1.9 0.3 0.5 0.9 0.5 0.5 0 0.8-0.3 0.3-0.2 0.7-0.8zm-10.6-18.3q-0.9 0-1.3 0.2-0.5 0.2-0.6 0.7-0.2 0.5-0.2 1.5v7.1h1.9q2.8 0 3.9-1.3 1.1-1.2 1.1-3.5 0-2.3-1.1-3.5-1.2-1.2-3.7-1.2z"/>
			</g>
		</g>
	</g>
	<g id="Layer">
		<g id="Layer">
			<g id="Layer">
				<path id="Layer" fill-rule="evenodd" class="s1" d="m32.1 10.3q2.7 0 4.7 1.2 2.1 1.3 3.2 3.6 1.2 2.4 1.2 5.6 0 3.2-1.2 5.6-1.2 2.4-3.2 3.8-2.1 1.4-4.8 1.4-2.7 0-4.7-1.3-2.1-1.2-3.2-3.6-1.2-2.3-1.2-5.6 0-3.1 1.2-5.5 1.2-2.5 3.2-3.8 2.1-1.4 4.8-1.4zm-0.1 0.5q-1.9 0-3.3 1.3-1.4 1.3-2.1 3.6-0.8 2.3-0.8 5.2 0 3 0.8 5.3 0.9 2.3 2.3 3.5 1.5 1.2 3.3 1.2 1.8 0 3.2-1.2 1.4-1.3 2.1-3.6 0.8-2.3 0.8-5.3 0-3-0.8-5.2-0.9-2.3-2.3-3.6-1.5-1.2-3.2-1.2z"/>
			</g>
		</g>
	</g>
	<g id="Layer">
		<g id="Layer">
			<g id="Layer">
				<path id="Layer" class="s1" d="m68.6 11.3q-1 0-1.5 0.2-0.5 0.2-0.7 0.7-0.1 0.5-0.1 1.5v14.3q0 1.1 0.1 1.6 0.2 0.5 0.7 0.6 0.5 0.2 1.5 0.3v0.5q-1.3 0-3.7 0-2.4 0-3.6 0v-0.5q1-0.1 1.5-0.3 0.4-0.1 0.6-0.6 0.2-0.5 0.2-1.6v-15.4l-6.9 18.6h-0.5l-7.2-18.7v15.2q0 1.1 0.2 1.7 0.1 0.5 0.7 0.8 0.5 0.2 1.7 0.3v0.5q-1 0-2.9 0-1.8 0-2.7 0v-0.5q1-0.1 1.5-0.3 0.5-0.3 0.6-0.8 0.2-0.6 0.2-1.7v-14q0-1-0.2-1.5-0.1-0.5-0.6-0.7-0.5-0.2-1.5-0.2v-0.6q0.9 0.1 2.7 0.1 1.5 0 2.4-0.1l6.3 16.6 6.2-16.5h1.3q2.4 0 3.7-0.1z"/>
			</g>
		</g>
	</g>
	<g id="Layer">
		<g id="Layer">
			<g id="Layer">
				<path id="Layer" class="s1" d="m86.6 10.8q1.3 0 2.2-0.1v0.6q-0.6 0.1-1.1 0.7-0.6 0.6-1.2 1.8l-4.5 9v5.2q0 1.1 0.1 1.6 0.2 0.5 0.7 0.6 0.5 0.2 1.5 0.3v0.5q-1.3 0-3.7 0-2.4 0-3.6 0v-0.5q1-0.1 1.5-0.3 0.4-0.1 0.6-0.6 0.2-0.5 0.2-1.6v-4.3l-5.8-10.8q-0.6-0.9-0.9-1.3-0.4-0.3-0.8-0.3v-0.6q1.1 0.1 2.5 0.1 2.8 0 4.1-0.1v0.6q-2.1 0-2.1 1.1 0 0.4 0.3 1l4.8 9.2 3.7-7.3q0.7-1.5 0.8-2.5-0.1-0.8-0.7-1.1-0.6-0.4-1.9-0.4v-0.6q1.7 0.1 3.3 0.1z"/>
			</g>
		</g>
	</g>
	<g id="Layer">
		<g id="Layer">
			<g id="Layer">
			</g>
		</g>
	</g>
	<g id="Layer">
		<g id="Layer">
			<g id="Layer">
			</g>
		</g>
	</g>
	<g id="Layer">
		<g id="Layer">
			<g id="Layer">
			</g>
		</g>
	</g>
	<g id="Layer">
		<g id="Layer">
			<g id="Layer">
			</g>
		</g>
	</g>
	<g id="Layer">
		<g id="Layer">
			<g id="Layer">
			</g>
		</g>
	</g>
	<g id="Layer">
		<g id="Layer">
			<g id="Layer">
				<path id="Layer" class="s1" d="m157.6 11.3q-1 0-1.5 0.2-0.5 0.2-0.7 0.7-0.1 0.5-0.1 1.5v14.3q0 1.1 0.1 1.6 0.2 0.5 0.7 0.6 0.5 0.2 1.5 0.3v0.5q-1.2 0-3.7 0-2.3 0-3.6 0v-0.5q1-0.1 1.5-0.3 0.5-0.1 0.6-0.6 0.2-0.5 0.2-1.6v-6.9h-9.3v6.9q0 1.1 0.1 1.6 0.2 0.5 0.7 0.6 0.5 0.2 1.5 0.3v0.5q-1.3 0-3.7 0-2.4 0-3.6 0v-0.5q1-0.1 1.5-0.3 0.4-0.1 0.6-0.6 0.2-0.5 0.2-1.6v-14.3q0-1-0.2-1.5-0.2-0.5-0.6-0.7-0.5-0.2-1.5-0.2v-0.6q1.2 0.1 3.6 0.1 2.3 0 3.7-0.1v0.6q-1 0-1.5 0.2-0.5 0.2-0.7 0.7-0.1 0.5-0.1 1.5v6.8h9.3v-6.8q0-1-0.2-1.5-0.1-0.5-0.6-0.7-0.5-0.2-1.5-0.2v-0.6q1.3 0.1 3.6 0.1 2.5 0 3.7-0.1z"/>
			</g>
		</g>
	</g>
	<g id="Layer">
		<g id="Layer">
			<g id="Layer">
				<path id="Layer" class="s1" d="m179.7 11.3q-1 0-1.5 0.3-0.5 0.2-0.6 0.8-0.2 0.5-0.2 1.6v8.7q0 2.1-0.3 3.5-0.3 1.5-0.9 2.6-0.7 1.2-2.1 1.9-1.4 0.8-3.2 0.8-3.1 0-4.8-1.6-1.3-1.2-1.7-2.7-0.4-1.5-0.4-4.4v-9.1q0-1-0.2-1.5-0.2-0.5-0.6-0.7-0.5-0.2-1.5-0.2v-0.6q1.2 0.1 3.6 0.1 2.4 0 3.7-0.1v0.6q-1.1 0-1.5 0.2-0.5 0.2-0.7 0.7-0.1 0.5-0.1 1.5v9.6q0 2.3 0.3 3.8 0.3 1.5 1.3 2.4 1 0.9 2.9 0.9 3 0 4.3-1.9 1.2-2 1.2-5.5v-9q0-1.5-0.6-2.1-0.5-0.6-2-0.6v-0.6q1 0.1 2.9 0.1 1.8 0 2.7-0.1z"/>
			</g>
		</g>
	</g>
	<g id="Layer">
		<g id="Layer">
			<g id="Layer">
				<path id="Layer" class="s1" d="m193.3 10.3q1.7 0 2.8 0.5 1.1 0.5 2.4 1.4 0.4 0.3 0.6 0.3 0.5 0 0.7-1.8h0.7q-0.1 1.9-0.1 6.6h-0.7q-0.3-1.5-0.5-2.5-0.3-1-0.9-1.7-0.9-1.1-2.2-1.7-1.3-0.6-2.8-0.6-1.9 0-3.3 1.2-1.5 1.3-2.2 3.6-0.8 2.3-0.8 5.3 0 5.2 1.6 7.6 1.7 2.4 5.2 2.4 1.7 0 3-0.9 0.5-0.4 0.7-0.7 0.1-0.3 0.1-0.9v-2.8q0-1.2-0.2-1.7-0.2-0.6-0.8-0.8-0.6-0.2-1.9-0.2v-0.6q1.5 0.1 4.1 0.1 1.9 0 3-0.1v0.6q-0.7 0-1 0.2-0.3 0.2-0.4 0.7-0.1 0.5-0.1 1.6v5.6h-0.6q0-0.5-0.2-1.1-0.2-0.5-0.5-0.5-0.2 0-0.4 0.1-0.2 0.1-0.6 0.4-1 0.8-2.1 1.2-1.1 0.4-2.4 0.4-2.9 0-5-1.3-2.2-1.2-3.3-3.5-1.1-2.3-1.1-5.5 0-3.3 1.2-5.7 1.2-2.5 3.3-3.9 2.1-1.3 4.7-1.3z"/>
			</g>
		</g>
	</g>
	<g id="Layer">
		<g id="Layer">
			<g id="Layer">
				<path id="Layer" class="s1" d="m220.7 27.4q0 1.6 0.3 3.6-2 0-6.6 0-5.6 0-8.4 0v-0.5q1.1-0.1 1.5-0.3 0.5-0.1 0.7-0.6 0.2-0.5 0.2-1.6v-14.3q0-1-0.2-1.5-0.2-0.5-0.7-0.7-0.4-0.2-1.5-0.2v-0.6q2.8 0.1 8.4 0.1 4.2 0 6-0.1-0.2 1.9-0.2 3.4 0 1.1 0.1 1.8h-0.7q-0.2-1.9-0.5-2.8-0.3-0.9-1.1-1.3-0.7-0.4-2.3-0.4h-2.3q-1.1 0-1.6 0.1-0.4 0.2-0.6 0.7-0.2 0.5-0.2 1.5v6.8h1.9q1 0 1.6-0.4 0.5-0.5 0.7-1.2 0.2-0.6 0.3-1.6l0.1-0.6h0.7q-0.1 1.2-0.1 2.7v1.4q0 1.5 0.1 4.1h-0.6q0-0.2-0.2-1.4-0.1-1.2-0.8-1.8-0.6-0.6-1.8-0.6h-1.9v6.9q0 1.1 0.2 1.6 0.2 0.5 0.6 0.6 0.5 0.2 1.6 0.2h2.1q1.7 0 2.7-0.5 0.9-0.5 1.3-1.5 0.5-1.1 0.7-3.1h0.6q-0.1 0.8-0.1 2.1z"/>
			</g>
		</g>
	</g>
	<g id="Layer">
		<g id="Layer">
			<g id="Layer">
				<path id="Layer" class="s1" d="m243.7 11.3q-1.1 0-1.5 0.3-0.5 0.2-0.7 0.8-0.2 0.5-0.2 1.6v17.2h-0.6l-12.1-18.7v15.2q0 1.1 0.2 1.7 0.2 0.5 0.7 0.8 0.6 0.2 1.7 0.3v0.5q-1 0-2.9 0-1.7 0-2.7 0v-0.5q1-0.1 1.5-0.3 0.5-0.3 0.7-0.8 0.1-0.6 0.1-1.7v-14q0-1-0.1-1.5-0.2-0.5-0.7-0.7-0.5-0.2-1.5-0.2v-0.6q1 0.1 2.7 0.1 1.3 0 2.2-0.1l10.2 15.6v-12.3q0-1.1-0.2-1.6-0.2-0.6-0.8-0.8-0.5-0.3-1.6-0.3v-0.6q1 0.1 2.9 0.1 1.7 0 2.7-0.1z"/>
			</g>
		</g>
	</g>
	<g id="Layer">
		<g id="Layer">
			<g id="Layer">
				<path id="Layer" class="s1" d="m254.1 10.4q1.3 0 2 0.3 0.7 0.2 1.5 0.8 0.7 0.4 1 0.4 0.3 0 0.4-0.3 0.1-0.3 0.2-1h0.7q-0.2 1.7-0.2 5.9h-0.6q-0.2-2.4-1.4-4-1.1-1.6-3.3-1.6-1.6 0-2.6 1-0.9 0.9-0.9 2.4 0 1.1 0.5 1.9 0.5 0.8 1.3 1.3 0.7 0.6 2.2 1.5l0.8 0.5q1.8 1.1 2.9 2 1 0.8 1.6 1.9 0.7 1.1 0.7 2.6 0 2.6-1.8 4-1.7 1.5-4.3 1.5-1.4 0-2.3-0.3-0.9-0.3-1.7-0.8-0.6-0.4-0.9-0.4-0.3 0-0.4 0.3-0.2 0.3-0.3 0.9h-0.6q0.1-1.5 0.1-6.8h0.7q0.1 2.9 1.4 4.7 1.2 1.8 3.8 1.8 1.5 0 2.6-1 1.1-0.9 1.1-2.9 0-1.6-1.1-2.7-1-1.1-3.4-2.5-1.7-1-2.7-1.8-1.1-0.8-1.7-2-0.7-1.1-0.7-2.6 0-2.5 1.6-3.7 1.5-1.3 3.8-1.3z"/>
			</g>
		</g>
	</g>
	<g id="Layer">
		<g id="Layer">
			<g id="Layer">
				<path id="Layer" class="s0" d="m67.7 50.1q-1-1-1-2.5 0-1.5 1-2.4 1-1 2.4-1 1.1 0 1.9 0.5 0.8 0.4 1.2 1.3h-0.8q-0.4-0.6-0.9-0.9-0.6-0.3-1.4-0.3-1.2 0-1.9 0.8-0.8 0.8-0.8 2 0 1.3 0.8 2.1 0.7 0.8 1.9 0.8 1.2 0 1.9-0.7 0.7-0.7 0.8-1.9h-3v-0.5h3.7v0.5q-0.1 1.4-1 2.3-1 0.9-2.4 0.8-1.4 0.1-2.4-0.9z"/>
			</g>
		</g>
	</g>
	<g id="Layer">
		<g id="Layer">
			<g id="Layer">
				<path id="Layer" class="s0" d="m76.2 48.7v-4.4h0.7v4.4q0 0.9 0.5 1.4 0.5 0.4 1.3 0.4 0.9 0 1.3-0.4 0.5-0.5 0.5-1.4v-4.4h0.7v4.4q0 1.2-0.7 1.8-0.7 0.6-1.8 0.5-1.1 0.1-1.8-0.5-0.7-0.6-0.7-1.8z"/>
			</g>
		</g>
	</g>
	<g id="Layer">
		<g id="Layer">
			<g id="Layer">
				<path id="Layer" class="s0" d="m84 44.8v-0.5h4.2v0.5h-1.8v6.2h-0.7v-6.2z"/>
			</g>
		</g>
	</g>
	<g id="Layer">
		<g id="Layer">
			<g id="Layer">
			</g>
		</g>
	</g>
	<g id="Layer">
		<g id="Layer">
			<g id="Layer">
				<path id="Layer" class="s0" d="m99.7 44.3h0.7v6.7h-0.7v-3.1h-3.6v3.1h-0.7v-6.7h0.7v3h3.6z"/>
			</g>
		</g>
	</g>
	<g id="Layer">
		<g id="Layer">
			<g id="Layer">
				<path id="Layer" class="s0" d="m106.8 44.3v0.5h-2.7v2.5h2.4v0.6h-2.4v2.5h2.7v0.6h-3.4v-6.7z"/>
			</g>
		</g>
	</g>
	<g id="Layer">
		<g id="Layer">
			<g id="Layer">
				<path id="Layer" fill-rule="evenodd" class="s0" d="m114.5 51l-0.6-1.6h-3.1l-0.6 1.6h-0.7l2.5-6.7h0.7l2.4 6.7zm-3.5-2.1h2.8l-1.4-3.8z"/>
			</g>
		</g>
	</g>
	<g id="Layer">
		<g id="Layer">
			<g id="Layer">
				<path id="Layer" class="s0" d="m118 44.3h0.6v6.2h2.5v0.5h-3.1z"/>
			</g>
		</g>
	</g>
	<g id="Layer">
		<g id="Layer">
			<g id="Layer">
				<path id="Layer" class="s0" d="m123.3 44.8v-0.5h4.2v0.5h-1.7v6.2h-0.7v-6.2z"/>
			</g>
		</g>
	</g>
	<g id="Layer">
		<g id="Layer">
			<g id="Layer">
				<path id="Layer" class="s0" d="m134.6 44.3h0.7v6.7h-0.7v-3.1h-3.6v3.1h-0.7v-6.7h0.7v3h3.6z"/>
			</g>
		</g>
	</g>
	<g id="Layer">
		<g id="Layer">
			<g id="Layer">
			</g>
		</g>
	</g>
	<g id="Layer">
		<g id="Layer">
			<g id="Layer">
				<path id="Layer" class="s0" d="m143.4 50.1q-1-1-1-2.5 0-1.5 1-2.4 1-1 2.5-1 1 0 1.8 0.5 0.8 0.4 1.2 1.3h-0.8q-0.3-0.6-0.9-0.9-0.6-0.3-1.3-0.3-1.2 0-2 0.8-0.8 0.8-0.8 2 0 1.3 0.8 2.1 0.8 0.8 2 0.8 0.7 0 1.3-0.4 0.6-0.3 0.9-0.9h0.8q-0.4 0.9-1.2 1.4-0.8 0.4-1.8 0.4-1.5 0.1-2.5-0.9z"/>
			</g>
		</g>
	</g>
	<g id="Layer">
		<g id="Layer">
			<g id="Layer">
				<path id="Layer" fill-rule="evenodd" class="s0" d="m152.6 50.1q-1-1-1-2.5 0-1.5 1-2.4 1-1 2.4-1 1.5 0 2.5 1 0.9 0.9 0.9 2.4 0 1.5-0.9 2.5-1 1-2.5 0.9-1.4 0.1-2.4-0.9zm4.4-0.4q0.7-0.8 0.7-2.1 0-1.2-0.7-2-0.8-0.8-2-0.8-1.2 0-1.9 0.8-0.8 0.8-0.8 2 0 1.3 0.8 2.1 0.7 0.8 1.9 0.8 1.2 0 2-0.8z"/>
			</g>
		</g>
	</g>
	<g id="Layer">
		<g id="Layer">
			<g id="Layer">
				<path id="Layer" fill-rule="evenodd" class="s0" d="m165.9 51l-0.6-1.6h-3.1l-0.6 1.6h-0.7l2.5-6.7h0.7l2.4 6.7zm-3.5-2.1h2.8l-1.4-3.8z"/>
			</g>
		</g>
	</g>
	<g id="Layer">
		<g id="Layer">
			<g id="Layer">
				<path id="Layer" class="s0" d="m170 50.1q-1-1-1-2.5 0-1.5 1-2.4 1-1 2.4-1 1.1 0 1.9 0.5 0.8 0.4 1.2 1.3h-0.8q-0.4-0.6-0.9-0.9-0.6-0.3-1.4-0.3-1.1 0-1.9 0.8-0.8 0.8-0.8 2 0 1.3 0.8 2.1 0.8 0.8 1.9 0.8 0.8 0 1.4-0.4 0.5-0.3 0.9-0.9h0.8q-0.4 0.9-1.2 1.4-0.8 0.4-1.9 0.4-1.4 0.1-2.4-0.9z"/>
			</g>
		</g>
	</g>
	<g id="Layer">
		<g id="Layer">
			<g id="Layer">
				<path id="Layer" class="s0" d="m182.8 44.3h0.7v6.7h-0.7v-3.1h-3.6v3.1h-0.7v-6.7h0.7v3h3.6z"/>
			</g>
		</g>
	</g>
	<g id="Layer">
		<g id="Layer">
			<g id="Layer">
			</g>
		</g>
	</g>
</svg>